<?xml version="1.0" standalone="no"?><!DOCTYPE svg PUBLIC "-//W3C//DTD SVG 1.1//EN" "http://www.w3.org/Graphics/SVG/1.1/DTD/svg11.dtd"><svg t="1610443128422" class="icon" viewBox="0 0 1024 1024" version="1.1" xmlns="http://www.w3.org/2000/svg" p-id="1274" xmlns:xlink="http://www.w3.org/1999/xlink" width="200" height="200"><defs><style type="text/css"></style></defs><path d="M920.480874 9.326047h-820.692167c-44.765027 0-82.069217 37.304189-82.069217 82.069217v723.701275c0 44.765027 37.304189 82.069217 82.069217 82.069217h820.692167c44.765027 0 82.069217-37.304189 82.069217-82.069217v-723.701275c0-44.765027-37.304189-82.069217-82.069217-82.069217z m0 768.466303c0 22.382514-14.921676 37.304189-37.304189 37.304189h-746.083789c-22.382514 0-37.304189-14.921676-37.304189-37.304189v-649.092896c0-22.382514 14.921676-37.304189 37.304189-37.30419h738.622951c22.382514 0 37.304189 14.921676 37.304189 37.30419v649.092896z m-156.677595 149.216757h-514.797815c-22.382514 0-37.304189 14.921676-37.304189 37.30419s14.921676 37.304189 37.304189 37.304189h514.797815c22.382514 0 37.304189-14.921676 37.304189-37.304189 7.460838-14.921676-14.921676-37.304189-37.304189-37.30419z" p-id="1275"></path><path d="M763.803279 1024h-514.797815c-29.843352 0-52.225865-22.382514-52.225865-52.225865 0-29.843352 22.382514-52.225865 52.225865-52.225865h514.797815c29.843352 0 52.225865 22.382514 52.225865 52.225865 0 14.921676-7.460838 22.382514-14.921676 37.304189s-22.382514 14.921676-37.304189 14.921676z m-507.336977-82.069217c-14.921676 0-29.843352 14.921676-29.843351 29.843352s14.921676 29.843352 29.843351 29.843351h514.797815c7.460838 0 14.921676 0 22.382513-7.460838 7.460838-7.460838 7.460838-14.921676 7.460838-22.382513 0-14.921676-14.921676-29.843352-29.843351-29.843352v-7.460838 7.460838h-514.797815z m-156.677595-29.843351c-52.225865 0-89.530055-44.765027-89.530055-89.530055v-723.701275c0-52.225865 44.765027-89.530055 89.530055-89.530055h820.692167c52.225865 0 89.530055 44.765027 89.530055 89.530055v723.701275c0 52.225865-37.304189 89.530055-89.530055 89.530055h-820.692167z m0-895.300547c-37.304189 0-74.608379 29.843352-74.608379 74.608379v723.701275c0 37.304189 29.843352 74.608379 74.608379 74.608379h820.692167c37.304189 0 74.608379-29.843352 74.608379-74.608379v-723.701275c0-37.304189-29.843352-74.608379-74.608379-74.608379h-820.692167z m37.304189 813.23133c-29.843352 0-52.225865-22.382514-52.225865-52.225865v-649.092896c0-29.843352 22.382514-52.225865 52.225865-52.225866h738.622951c29.843352 0 52.225865 22.382514 52.225865 52.225866v641.632058c0 29.843352-22.382514 52.225865-52.225865 52.225865h-738.622951z m0-731.162113c-14.921676 0-29.843352 14.921676-29.843351 29.843352v641.632058c0 14.921676 14.921676 29.843352 29.843351 29.843351h738.622951c14.921676 0 29.843352-14.921676 29.843352-29.843351v-641.632058c0-14.921676-14.921676-29.843352-29.843352-29.843352h-738.622951z" p-id="1276"></path><path d="M398.222222 300.298725c0-7.460838-7.460838-7.460838-14.921676-7.460838h-44.765027c-7.460838 0-14.921676 7.460838-14.921676 7.460838l-119.373406 313.355191v14.921676c0 7.460838 7.460838 7.460838 14.921676 7.460838h44.765027c7.460838 0 14.921676-7.460838 14.921676-7.460838l29.843352-82.069217h111.912568l29.843351 82.069217c0 7.460838 7.460838 7.460838 14.921676 7.460838h44.765028c7.460838 0 7.460838 0 14.921675-7.460838v-14.921676l-126.834244-313.355191z m-67.147541 171.599271l29.843352-74.608379c0-7.460838 0-7.460838 7.460838-14.921675 0 7.460838 7.460838 7.460838 7.460838 14.921675l22.382513 67.147541-67.147541 7.460838z m432.728598-149.216757c-14.921676-14.921676-29.843352-22.382514-52.225866-29.843352-22.382514-7.460838-37.304189-7.460838-59.686703-7.460838h-104.45173c-7.460838 0-14.921676 7.460838-14.921676 14.921676v313.355191c0 7.460838 7.460838 14.921676 14.921676 14.921676h111.912568c14.921676 0 37.304189 0 52.225865-7.460838 14.921676 0 29.843352-7.460838 44.765028-14.921676 14.921676-7.460838 22.382514-22.382514 29.843351-29.843351 7.460838-14.921676 14.921676-29.843352 22.382514-52.225865 7.460838-22.382514 7.460838-44.765027 7.460838-67.147541 0-29.843352-7.460838-52.225865-14.921676-82.069217 0-22.382514-14.921676-37.304189-37.304189-52.225865z m-22.382514 193.981785c0 14.921676-7.460838 22.382514-14.921676 29.843351-7.460838 7.460838-14.921676 7.460838-22.382513 14.921676-14.921676 7.460838-29.843352 7.460838-44.765028 7.460838h-52.225865v-216.364299h52.225865c14.921676 0 29.843352 0 44.765028 7.460838 14.921676 7.460838 22.382514 14.921676 29.843351 29.843352 7.460838 22.382514 14.921676 44.765027 14.921676 67.147541 0 22.382514-7.460838 37.304189-7.460838 59.686703z" p-id="1277"></path><path d="M666.812386 643.497268c-7.460838 0-7.460838 0 0 0h-119.373406c-7.460838 0-14.921676 0-14.921676-7.460838-7.460838 7.460838-7.460838 7.460838-14.921676 7.460838h-44.765027c-7.460838 0-22.382514-7.460838-22.382514-14.921676l-29.843351-74.608379h-96.990893l-29.843351 74.608379c0 7.460838-14.921676 14.921676-22.382514 14.921676h-44.765027c-7.460838 0-14.921676 0-22.382514-7.460838-7.460838-7.460838-7.460838-14.921676 0-22.382514l119.373406-305.894353c0-7.460838 14.921676-14.921676 22.382514-14.921676h44.765027c7.460838 0 22.382514 7.460838 22.382514 14.921676l111.912568 276.051002v-268.590164c0-14.921676 14.921676-22.382514 22.382514-22.382514h104.45173c22.382514 0 37.304189 0 59.686703 7.460838 22.382514 7.460838 37.304189 14.921676 52.225866 29.843352 22.382514 14.921676 37.304189 37.304189 44.765027 59.686703 7.460838 29.843352 14.921676 52.225865 14.921676 82.069216 0 22.382514 0 44.765027-7.460838 67.147541-7.460838 22.382514-14.921676 37.304189-22.382514 52.225866-7.460838 14.921676-22.382514 22.382514-37.304189 37.304189l-44.765028 22.382514c-14.921676-14.921676-29.843352-7.460838-44.765027-7.460838z m-7.460838-22.382514c14.921676 0 37.304189 0 52.225865-7.460838 14.921676 0 29.843352-7.460838 37.30419-14.921676 14.921676-7.460838 22.382514-14.921676 29.843351-29.843351l22.382514-44.765027c7.460838-22.382514 7.460838-44.765027 7.460838-67.147541 0-29.843352 0-52.225865-14.921676-74.608379-7.460838-22.382514-22.382514-37.304189-37.304189-52.225865-14.921676-7.460838-29.843352-22.382514-44.765028-22.382514-14.921676 0-37.304189-7.460838-59.686703 0h-104.45173c-7.460838 0-7.460838 0-7.460838 7.460838v313.355191c0 7.460838 0 7.460838 7.460838 7.460838h111.912568z m-149.216757 0c7.460838 0 7.460838 0 0 0 7.460838 0 7.460838-7.460838 7.460837-7.460838l-126.834244-313.355191s0-7.460838-7.460838-7.460838h-44.765027s-7.460838 0-7.460838 7.460838l-119.373406 313.355191v7.460838h52.225865s7.460838 0 7.460838-7.460838l29.843352-89.530054h119.373406l37.304189 89.530054s0 7.460838 7.460838 7.460838h44.765028z m156.677595-52.225865h-67.147541v-223.825137h59.686703c14.921676 0 37.304189 0 52.225865 7.460838 14.921676 7.460838 29.843352 14.921676 37.30419 29.843352 7.460838 22.382514 14.921676 44.765027 14.921676 74.608379 0 14.921676 0 37.304189-7.460838 59.686703 0 14.921676-7.460838 29.843352-22.382514 37.304189-7.460838 7.460838-14.921676 14.921676-29.843351 14.921676h-37.30419z m-52.225865-14.921676h44.765027c14.921676 0 29.843352 0 37.30419-7.460838 7.460838 0 14.921676-7.460838 14.921675-7.460838 7.460838-7.460838 14.921676-14.921676 14.921676-22.382513v-7.460838c7.460838-14.921676 7.460838-37.304189 7.460838-52.225865 0-22.382514-7.460838-44.765027-14.921676-67.147541-7.460838-7.460838-14.921676-22.382514-22.382513-22.382514-14.921676-7.460838-29.843352-7.460838-44.765028-7.460838h-37.304189v193.981785z m-208.903461-74.608379h-74.608379v-7.460838h-7.460838v-14.921675l22.382514-59.686704v-7.460837-7.460838l7.460838-22.382514 7.460838 22.382514v14.921675l44.765027 82.069217z m-59.686703-14.921676h37.304189l-14.921675-44.765027-22.382514 44.765027z" p-id="1278"></path></svg>