<?xml version="1.0" standalone="no"?><!DOCTYPE svg PUBLIC "-//W3C//DTD SVG 1.1//EN" "http://www.w3.org/Graphics/SVG/1.1/DTD/svg11.dtd"><svg t="1610443569032" class="icon" viewBox="0 0 1024 1024" version="1.1" xmlns="http://www.w3.org/2000/svg" p-id="2427" xmlns:xlink="http://www.w3.org/1999/xlink" width="200" height="200"><defs><style type="text/css"></style></defs><path d="M835.472868 11.986357h-642.976744c-71.44186 0-127.007752 55.565891-127.007752 127.007752v746.170542c0 71.44186 55.565891 127.007752 127.007752 127.007752h642.976744c71.44186 0 127.007752-55.565891 127.007752-127.007752v-746.170542c-7.937984-71.44186-63.503876-127.007752-127.007752-127.007752z m39.689923 873.178294c0 23.813953-15.875969 39.689922-39.689923 39.689923h-642.976744c-23.813953 0-39.689922-15.875969-39.689922-39.689923v-746.170542c0-23.813953 15.875969-39.689922 39.689922-39.689923h642.976744c23.813953 0 39.689922 15.875969 39.689923 39.689923v746.170542z" p-id="2428"></path><path d="M835.472868 1020.110388h-642.976744c-71.44186 0-134.945736-63.503876-134.945736-134.945737v-746.170542c0-71.44186 63.503876-134.945736 134.945736-134.945737h642.976744c79.379845 0 134.945736 63.503876 134.945737 134.945737v746.170542c0 79.379845-63.503876 134.945736-134.945737 134.945737zM192.496124 27.862326c-63.503876 0-111.131783 47.627907-111.131783 111.131783v746.170542c0 63.503876 47.627907 111.131783 111.131783 111.131783h642.976744c63.503876 0 111.131783-47.627907 111.131783-111.131783v-746.170542c0-63.503876-47.627907-111.131783-111.131783-111.131783h-642.976744z m642.976744 912.868217h-642.976744c-31.751938 0-55.565891-23.813953-55.565891-55.565892v-746.170542c0-31.751938 23.813953-55.565891 55.565891-55.565892h642.976744c31.751938 0 55.565891 23.813953 55.565892 55.565892v746.170542c-7.937984 31.751938-31.751938 55.565891-55.565892 55.565892z m-642.976744-833.488372c-15.875969 0-31.751938 15.875969-31.751938 31.751938v746.170542c0 15.875969 15.875969 31.751938 31.751938 31.751938h642.976744c15.875969 0 31.751938-15.875969 31.751938-31.751938v-746.170542c0-15.875969-15.875969-31.751938-31.751938-31.751938h-642.976744z" p-id="2429"></path><path d="M700.527132 686.715039h-309.581396c-23.813953 0-39.689922 15.875969-39.689922 39.689922s15.875969 39.689922 39.689922 39.689923h309.581396c23.813953 0 39.689922-15.875969 39.689922-39.689923s-23.813953-39.689922-39.689922-39.689922z" p-id="2430"></path></svg>