<?xml version="1.0" standalone="no"?><!DOCTYPE svg PUBLIC "-//W3C//DTD SVG 1.1//EN" "http://www.w3.org/Graphics/SVG/1.1/DTD/svg11.dtd"><svg t="1610443317680" class="icon" viewBox="0 0 1031 1024" version="1.1" xmlns="http://www.w3.org/2000/svg" p-id="1784" xmlns:xlink="http://www.w3.org/1999/xlink" width="201.3671875" height="200"><defs><style type="text/css"></style></defs><path d="M1002.666667 355.555556L888.888889 64c-7.111111-28.444444-28.444444-42.666667-56.888889-42.666667H184.888889c-28.444444 0-49.777778 14.222222-56.888889 42.666667L21.333333 355.555556c0 7.111111-7.111111 21.333333-7.111111 28.444444 0 78.222222 35.555556 149.333333 99.555556 199.111111v369.777778c0 35.555556 28.444444 64 64 64h661.333333c35.555556 0 64-28.444444 64-64V576c64-49.777778 99.555556-120.888889 99.555556-199.111111 7.111111-7.111111 7.111111-14.222222 0-21.333333z m-426.666667 590.222222H448V782.222222h135.111111v163.555556z m270.222222 0H647.111111V782.222222c0-35.555556-28.444444-64-64-64H448c-35.555556 0-64 28.444444-64 64v163.555556H177.777778V604.444444c14.222222 7.111111 35.555556 7.111111 49.777778 7.111112 56.888889 0 106.666667-21.333333 142.222222-64 71.111111 78.222222 199.111111 85.333333 277.333333 7.111111l7.111111-7.111111c35.555556 35.555556 92.444444 64 142.222222 64 14.222222 0 28.444444 0 42.666667-7.111112l7.111111 341.333334z m-49.777778-398.222222c-49.777778 0-92.444444-28.444444-113.777777-64l-28.444445-49.777778-28.444444 42.666666c-28.444444 42.666667-71.111111 64-113.777778 64-49.777778 0-92.444444-28.444444-113.777778-64l-28.444444-42.666666-28.444445 42.666666c-28.444444 42.666667-71.111111 64-113.777777 64C142.222222 540.444444 71.111111 462.222222 78.222222 376.888889l113.777778-298.666667h640l113.777778 298.666667c0 85.333333-64 163.555556-149.333334 170.666667z" p-id="1785"></path><path d="M846.222222 1024H177.777778c-21.333333 0-42.666667-7.111111-56.888889-21.333333-14.222222-14.222222-21.333333-35.555556-21.333333-56.888889V583.111111C35.555556 533.333333 0 462.222222 0 376.888889c0-7.111111 0-21.333333 7.111111-28.444445L120.888889 49.777778c7.111111-28.444444 35.555556-49.777778 64-49.777778h654.222222c35.555556 0 64 21.333333 71.111111 56.888889l113.777778 291.555555c0 7.111111 7.111111 14.222222 7.111111 28.444445 0 78.222222-35.555556 156.444444-99.555555 206.222222v362.666667c-7.111111 42.666667-42.666667 78.222222-85.333334 78.222222z m0-28.444444c28.444444 0 49.777778-21.333333 49.777778-49.777778V568.888889l7.111111-7.111111c56.888889-42.666667 92.444444-113.777778 92.444445-184.888889v-14.222222L881.777778 71.111111c-7.111111-21.333333-21.333333-35.555556-42.666667-35.555555H184.888889c-21.333333-7.111111-35.555556 7.111111-42.666667 21.333333L28.444444 355.555556v21.333333c0 71.111111 35.555556 142.222222 92.444445 184.888889l7.111111 7.111111v376.888889c0 14.222222 7.111111 28.444444 14.222222 35.555555 7.111111 7.111111 21.333333 14.222222 35.555556 14.222223h668.444444z m14.222222-35.555556H632.888889V782.222222c0-28.444444-21.333333-49.777778-49.777778-49.777778H448c-14.222222 0-28.444444 7.111111-35.555556 14.222223-7.111111 7.111111-14.222222 21.333333-14.222222 35.555555v184.888889H163.555556V590.222222l14.222222 7.111111c14.222222 0 28.444444 7.111111 42.666666 7.111111 49.777778 0 99.555556-21.333333 135.111112-56.888888l7.111111-14.222223 7.111111 14.222223c35.555556 35.555556 78.222222 56.888889 128 56.888888s92.444444-14.222222 128-49.777777l7.111111-7.111111 7.111111-14.222223 7.111111 7.111111c35.555556 35.555556 85.333333 56.888889 135.111111 56.888889 14.222222 0 28.444444 0 42.666667-7.111111l14.222222-7.111111 21.333333 376.888889z m-199.111111-28.444444h170.666667V625.777778h-28.444444c-49.777778 0-106.666667-21.333333-142.222223-56.888889-42.666667 35.555556-99.555556 56.888889-156.444444 56.888889-49.777778 0-99.555556-21.333333-135.111111-56.888889-35.555556 35.555556-92.444444 56.888889-142.222222 56.888889h-28.444445v305.777778h170.666667V782.222222c0-21.333333 7.111111-42.666667 21.333333-56.888889 14.222222-21.333333 35.555556-28.444444 56.888889-28.444444h135.111111c42.666667 0 78.222222 35.555556 78.222222 78.222222v156.444445z m-71.111111 28.444444H433.777778v-192h163.555555v192z m-128-28.444444H568.888889v-135.111112H462.222222v135.111112z m49.777778-369.777778c-49.777778 0-99.555556-28.444444-128-71.111111l-14.222222-28.444445-14.222222 21.333334c-28.444444 42.666667-78.222222 71.111111-128 71.111111C128 554.666667 56.888889 469.333333 64 376.888889v-7.111111L177.777778 64h661.333333l113.777778 312.888889c7.111111 92.444444-64 170.666667-156.444445 177.777778-49.777778 0-99.555556-28.444444-128-71.111111l-14.222222-21.333334-14.222222 21.333334c-28.444444 49.777778-78.222222 71.111111-128 78.222222zM92.444444 376.888889c-7.111111 78.222222 56.888889 142.222222 135.111112 149.333333 42.666667 0 78.222222-21.333333 99.555555-56.888889l42.666667-56.888889 35.555555 56.888889c21.333333 35.555556 64 56.888889 106.666667 56.888889s78.222222-21.333333 106.666667-56.888889l42.666666-64 42.666667 56.888889c21.333333 35.555556 64 56.888889 106.666667 56.888889 78.222222-7.111111 135.111111-71.111111 128-149.333333l-106.666667-284.444445H199.111111L92.444444 376.888889z" p-id="1786"></path></svg>