<?xml version="1.0" standalone="no"?><!DOCTYPE svg PUBLIC "-//W3C//DTD SVG 1.1//EN" "http://www.w3.org/Graphics/SVG/1.1/DTD/svg11.dtd"><svg t="1606394754839" class="icon" viewBox="0 0 1024 1024" version="1.1" xmlns="http://www.w3.org/2000/svg" p-id="4793" xmlns:xlink="http://www.w3.org/1999/xlink" width="200" height="200"><defs><style type="text/css"></style></defs><path d="M512 512m-512 0a512 512 0 1 0 1024 0 512 512 0 1 0-1024 0Z" fill="#37B474" p-id="4794"></path><path d="M747.15136 573.27616v108.58496a54.8864 54.8864 0 0 1-53.248 56.36096h-359.6288a54.92736 54.92736 0 0 1-53.248-56.36096v-106.496a111.49312 111.49312 0 0 0 19.8656 13.88544 100.22912 100.22912 0 0 0 50.01216 11.264 103.71072 103.71072 0 0 0 81.92-38.33856 104.8576 104.8576 0 0 0 160.31744 0 102.8096 102.8096 0 0 0 81.92 37.2736 125.91104 125.91104 0 0 0 18.75968-1.39264 104.8576 104.8576 0 0 0 16.75264-4.096c5.12-1.67936 10.32192-3.64544 15.64672-5.89824a108.09344 108.09344 0 0 0 21.01248-15.07328z" fill="#FFFFFF" p-id="4795"></path><path d="M777.54368 412.71296l-1.18784-3.72736-45.42464-122.55232a57.344 57.344 0 0 0-21.58592-30.02368 59.5968 59.5968 0 0 0-35.2256-10.8544H357.62176a59.67872 59.67872 0 0 0-34.93888 10.52672 56.32 56.32 0 0 0-21.2992 29.04064l-48.82432 125.05088a3.56352 3.56352 0 0 1-1.14688 2.49856q-2.21184 9.05216-4.096 18.26816a93.88032 93.88032 0 0 0-1.67936 17.6128 123.86304 123.86304 0 0 0 6.79936 40.96 111.37024 111.37024 0 0 0 19.57888 35.26656 113.664 113.664 0 0 0 29.24544 25.31328 92.85632 92.85632 0 0 0 49.9712 12.288 100.22912 100.22912 0 0 0 81.92-42.02496 99.00032 99.00032 0 0 0 160.19456 0 99.28704 99.28704 0 0 0 81.92 40.96 108.83072 108.83072 0 0 0 18.71872-1.55648 94.208 94.208 0 0 0 16.75264-4.34176q7.70048-2.78528 15.64672-6.47168a111.57504 111.57504 0 0 0 40.59136-42.96704 119.68512 119.68512 0 0 0 15.07328-58.40896 86.8352 86.8352 0 0 0-4.54656-34.65216z" fill="#FFFFFF" p-id="4796"></path></svg>