<?xml version="1.0" standalone="no"?><!DOCTYPE svg PUBLIC "-//W3C//DTD SVG 1.1//EN" "http://www.w3.org/Graphics/SVG/1.1/DTD/svg11.dtd"><svg t="1610440660469" class="icon" viewBox="0 0 1040 1024" version="1.1" xmlns="http://www.w3.org/2000/svg" p-id="1729" xmlns:xlink="http://www.w3.org/1999/xlink" width="203.125" height="200"><defs><style type="text/css"></style></defs><path d="M873.870058 40.081415h-713.449194c-72.146548 0-128.260529 56.113982-128.260529 128.26053v697.416627c0 72.146548 56.113982 128.260529 128.260529 128.260529h320.651323v-64.130264h-296.602473c-48.097698 0-96.195397-40.081415-96.195397-88.179114v-641.302646c0-48.097698 40.081415-88.179114 96.195397-88.179114h649.318929c48.097698 0 88.179114 40.081415 88.179114 88.179114v280.569907h64.130264v-304.618756c16.032566-72.146548-40.081415-136.276812-112.227963-136.276813z" p-id="1730"></path><path d="M513.13732 1018.067951h-352.716456c-88.179114 0-160.325661-72.146548-160.325661-160.325662v-697.416628c0-88.179114 72.146548-160.325661 160.325661-160.325661h761.546893l-8.016284 8.016283c64.130265 24.048849 112.227963 80.162831 112.227964 152.309378v336.68389h-120.244247v-304.618757c0-32.065132-32.065132-64.130265-64.130264-64.130265h-649.318929c-32.065132 0-64.130265 32.065132-64.130265 64.130265v641.302646c0 32.065132 32.065132 64.130265 64.130265 64.130264h320.651323v120.244247z m-352.716456-945.921403c-56.113982 0-104.21168 48.097698-104.21168 104.21168v697.416627c0 56.113982 48.097698 104.21168 104.21168 104.21168h296.602474v-8.016283h-264.537341c-64.130265 0-120.244246-56.113982-120.244246-120.244246v-641.302646c0-64.130265 56.113982-120.244246 120.244246-120.244246h649.318929c64.130265 0 120.244246 56.113982 120.244246 120.244246v248.504775h8.016283v-280.569907c0-56.113982-48.097698-104.21168-104.21168-104.21168h-705.432911z" p-id="1731"></path><path d="M825.77236 777.579458c72.146548-104.21168 48.097698-248.504775-56.113982-320.651323s-248.504775-48.097698-320.651323 56.113982-48.097698 248.504775 56.113982 320.651323c80.162831 56.113982 192.390794 56.113982 272.553624-8.016283l160.325662 160.325661c16.032566 16.032566 32.065132 16.032566 48.097698 0s16.032566-32.065132 0-48.097698l-160.325661-160.325662z m-352.716456-136.276812c0-88.179114 72.146548-168.341945 168.341945-168.341945s168.341945 72.146548 168.341944 168.341945-72.146548 168.341945-168.341944 168.341945c-96.195397 0-168.341945-80.162831-168.341945-168.341945z" p-id="1732"></path><path d="M962.049172 1018.067951c-16.032566 0-32.065132-8.016283-40.081415-16.032567l-144.293096-144.293095c-88.179114 56.113982-200.407077 56.113982-288.586191-8.016283-56.113982-40.081415-96.195397-96.195397-104.211679-168.341945-8.016283-64.130265 0-136.276812 40.081415-192.390793 80.162831-120.244246 240.488492-144.293095 360.732738-64.130265 56.113982 40.081415 96.195397 96.195397 104.21168 168.341945 8.016283 56.113982 0 120.244246-32.065132 176.358227l144.293095 144.293096c24.048849 24.048849 24.048849 64.130265 0 88.179113-8.016283 8.016283-24.048849 16.032566-40.081415 16.032567z m-184.374511-232.47221l176.358228 176.358228 24.048849-24.048849-16.032566 16.032566-184.374511-168.341945 16.032566-24.048849c32.065132-40.081415 40.081415-96.195397 32.065133-152.309378s-40.081415-96.195397-80.162831-128.26053c-88.179114-64.130265-216.439643-40.081415-280.569908 48.097699-32.065132 40.081415-40.081415 96.195397-32.065132 152.309378 8.016283 56.113982 40.081415 96.195397 80.162831 128.26053 72.146548 48.097698 176.358228 48.097698 240.488492-8.016284l24.048849-16.032566z m-144.293095 48.097699c-104.21168 0-192.390794-88.179114-192.390794-192.390794 0-104.21168 88.179114-192.390794 192.390794-192.390794 48.097698 0 96.195397 24.048849 136.276812 56.113982 40.081415 40.081415 56.113982 88.179114 56.113982 136.276812 0 48.097698-24.048849 96.195397-56.113982 136.276812-32.065132 40.081415-80.162831 56.113982-136.276812 56.113982z m-136.276812-192.390794c0 72.146548 64.130265 136.276812 136.276812 136.276812 40.081415 0 72.146548-16.032566 96.195397-40.081415 24.048849-24.048849 40.081415-64.130265 40.081415-96.195397 0-40.081415-16.032566-72.146548-40.081415-96.195397-24.048849-24.048849-64.130265-40.081415-96.195397-40.081415-72.146548 0-136.276812 64.130265-136.276812 136.276812z" p-id="1733"></path></svg>