<?xml version="1.0" standalone="no"?><!DOCTYPE svg PUBLIC "-//W3C//DTD SVG 1.1//EN" "http://www.w3.org/Graphics/SVG/1.1/DTD/svg11.dtd"><svg t="1610445681548" class="icon" viewBox="0 0 1096 1024" version="1.1" xmlns="http://www.w3.org/2000/svg" p-id="1304" xmlns:xlink="http://www.w3.org/1999/xlink" width="214.0625" height="200"><defs><style type="text/css"></style></defs><path d="M806.245699 1000.604569h-518.29877c-93.581722 0-165.567663-71.98594-165.567662-165.567662v-403.121266h849.434095v403.121266c0 86.383128-71.98594 165.567663-165.567663 165.567662z m-633.476274-518.298769v352.731107c0 64.787346 50.390158 115.177504 115.177504 115.177504h518.29877c64.787346 0 115.177504-50.390158 115.177505-115.177504v-352.731107h-748.653779z" p-id="1305"></path><path d="M806.245699 1022.200351h-518.29877c-107.97891 0-194.362039-86.383128-194.362038-194.362038v-424.717048h899.824253v424.717048c7.198594 107.97891-79.184534 194.362039-187.163445 194.362038z m-611.880492-518.298769v323.936731c0 50.390158 43.191564 93.581722 93.581722 93.581722h518.29877c50.390158 0 93.581722-43.191564 93.581722-93.581722v-323.936731h-705.462214z" p-id="1306"></path><path d="M971.813362 482.3058h-849.434095c-50.390158 0-93.581722-43.191564-93.581723-93.581723v-50.390158c0-50.390158 43.191564-93.581722 93.581723-93.581722h849.434095c50.390158 0 93.581722 43.191564 93.581722 93.581722v50.390158c0 50.390158-43.191564 93.581722-93.581722 93.581723z m-849.434095-187.163445c-28.794376 0-50.390158 21.595782-50.390158 50.390158v43.191564c0 28.794376 21.595782 50.390158 50.390158 50.390159h849.434095c28.794376 0 50.390158-21.595782 50.390158-50.390159v-50.390158c0-28.794376-21.595782-50.390158-50.390158-50.390158h-849.434095z" p-id="1307"></path><path d="M971.813362 503.901582h-849.434095c-64.787346 0-122.376098-50.390158-122.376099-115.177505v-50.390158c0-64.787346 57.588752-122.376098 122.376099-122.376098h849.434095c64.787346 0 122.376098 57.588752 122.376098 122.376098v50.390158c0 64.787346-57.588752 115.177504-122.376098 115.177505z m-849.434095-187.163445c-7.198594 0-21.595782 14.397188-21.595782 21.595782v50.390158c0 14.397188 7.198594 21.595782 21.595782 21.595782h849.434095c14.397188 0 21.595782-7.198594 21.595782-21.595782v-50.390158c0-14.397188-7.198594-21.595782-21.595782-21.595782h-849.434095z" p-id="1308"></path><path d="M547.096314 950.214411c-14.397188 0-21.595782-7.198594-21.595782-21.595782v-633.476274c0-14.397188 7.198594-21.595782 21.595782-21.595782 14.397188 0 21.595782 7.198594 21.595782 21.595782v633.476274c0 14.397188-7.198594 21.595782-21.595782 21.595782z" p-id="1309"></path><path d="M547.096314 979.008787c-14.397188 0-28.794376-7.198594-35.99297-14.397188-7.198594-7.198594-14.397188-21.595782-14.397188-35.99297v-633.476274c0-28.794376 21.595782-50.390158 50.390158-50.390158s50.390158 21.595782 50.390158 50.390158v633.476274c0 28.794376-21.595782 50.390158-50.390158 50.390158z m0-50.390158z" p-id="1310"></path><path d="M575.89069 295.142355h-287.943761l-7.198594-7.198594c-35.99297-43.191564-57.588752-93.581722-57.588752-151.170475 0-35.99297 14.397188-64.787346 35.99297-86.383128 21.595782-14.397188 50.390158-21.595782 71.985941-21.595782 64.787346 7.198594 115.177504 28.794376 158.369068 71.98594 43.191564 43.191564 71.98594 100.780316 79.184534 158.369069l7.198594 35.99297z m-266.347979-50.390158h208.759227c-7.198594-43.191564-28.794376-79.184534-57.588752-107.978911-35.99297-35.99297-79.184534-57.588752-129.574692-57.588752-14.397188 0-28.794376 0-35.992971 14.397188-14.397188 7.198594-21.595782 28.794376-21.595782 43.191564 0 43.191564 7.198594 79.184534 35.99297 107.978911z" p-id="1311"></path><path d="M604.685066 316.738137h-323.936731l-14.397188-14.397188c-43.191564-43.191564-71.98594-107.97891-64.787346-165.567663 0-43.191564 14.397188-79.184534 43.191564-107.97891 28.794376-21.595782 57.588752-28.794376 86.383129-28.794376 71.98594 7.198594 129.574692 35.99297 179.96485 86.383128s79.184534 107.97891 86.383128 179.964851l7.198594 50.390158z m-280.745166-100.780316h158.369068c-7.198594-21.595782-21.595782-43.191564-43.191564-57.588752-28.794376-35.99297-64.787346-50.390158-107.97891-57.588753-7.198594 0-14.397188 7.198594-21.595783 7.198594-7.198594 7.198594-7.198594 21.595782-7.198594 28.794376-7.198594 28.794376 0 57.588752 21.595783 79.184535z" p-id="1312"></path><path d="M806.245699 295.142355h-287.943761v-28.794376c14.397188-64.787346 35.99297-115.177504 79.184534-165.567663 43.191564-43.191564 100.780316-71.98594 158.369069-71.98594 21.595782 0 50.390158 7.198594 64.787346 21.595782 21.595782 21.595782 35.99297 57.588752 35.99297 86.383128 14.397188 57.588752-7.198594 107.97891-50.390158 158.369069z m-230.355009-50.390158h208.759227c28.794376-28.794376 35.99297-64.787346 35.99297-107.978911 0-21.595782-7.198594-35.99297-21.595782-50.390158-14.397188-7.198594-21.595782-14.397188-35.99297-14.397188-50.390158 7.198594-93.581722 28.794376-129.574692 64.787346-28.794376 28.794376-50.390158 64.787346-57.588753 107.978911z" p-id="1313"></path><path d="M813.444293 316.738137h-323.936731l7.198594-57.588752c7.198594-64.787346 35.99297-129.574692 86.383128-172.766257 43.191564-50.390158 107.97891-79.184534 179.964851-86.383128 28.794376 0 57.588752 7.198594 86.383128 28.794376 28.794376 28.794376 43.191564 64.787346 43.191564 107.97891 0 64.787346-21.595782 122.376098-64.787346 165.567663l-14.397188 14.397188z m-201.560633-100.780316h158.369069c14.397188-21.595782 21.595782-50.390158 21.595782-79.184535 0-14.397188-7.198594-28.794376-14.397188-35.99297h-14.397188c-43.191564 0-79.184534 21.595782-107.97891 50.390159-21.595782 21.595782-35.99297 43.191564-43.191565 64.787346z" p-id="1314"></path></svg>