<?xml version="1.0" standalone="no"?><!DOCTYPE svg PUBLIC "-//W3C//DTD SVG 1.1//EN" "http://www.w3.org/Graphics/SVG/1.1/DTD/svg11.dtd"><svg t="1606394758713" class="icon" viewBox="0 0 1024 1024" version="1.1" xmlns="http://www.w3.org/2000/svg" p-id="4920" xmlns:xlink="http://www.w3.org/1999/xlink" width="200" height="200"><defs><style type="text/css"></style></defs><path d="M512 512m-512 0a512 512 0 1 0 1024 0 512 512 0 1 0-1024 0Z" fill="#F47272" p-id="4921"></path><path d="M520.6016 580.11648v187.63776a15.11424 15.11424 0 0 0 5.98016 12.77952 22.77376 22.77376 0 0 0 13.43488 5.69344h138.89536a37.64224 37.64224 0 0 0 38.83008-36.864v-169.24672a15.11424 15.11424 0 0 0-5.98016-12.77952 22.77376 22.77376 0 0 0-13.43488-5.69344h-158.3104a16.5888 16.5888 0 0 0-13.43488 5.69344 20.72576 20.72576 0 0 0-5.98016 12.77952z m-58.24512-18.47296H304.00512a16.5888 16.5888 0 0 0-13.43488 5.69344 20.72576 20.72576 0 0 0-5.98016 12.77952v167.936a39.85408 39.85408 0 0 0 40.3456 38.37952h137.4208a16.5888 16.5888 0 0 0 13.43488-5.69344 20.72576 20.72576 0 0 0 5.98016-12.77952v-187.84256a15.11424 15.11424 0 0 0-5.98016-12.77952 16.5888 16.5888 0 0 0-13.47584-5.69344z m255.3856-187.67872h-38.83008a79.0528 79.0528 0 0 0 17.94048-36.864 76.26752 76.26752 0 0 0-22.40512-68.32128 87.28576 87.28576 0 0 0-97.0752-14.21312 86.71232 86.71232 0 0 0-37.35552 38.37952l-38.74816 78.19264-38.83008-79.62624a77.37344 77.37344 0 0 0-28.38528-32.768 86.4256 86.4256 0 0 0-104.81664 10.0352 77.25056 77.25056 0 0 0-23.87968 69.632 86.26176 86.26176 0 0 0 17.94048 36.864h-38.7072a36.864 36.864 0 0 0-38.83008 36.864v75.5712a37.6832 37.6832 0 0 0 38.83008 36.864h176.128a16.5888 16.5888 0 0 0 13.43488-5.69344 20.72576 20.72576 0 0 0 5.98016-12.77952v-75.24352a18.96448 18.96448 0 0 1 16.384-19.90656 17.44896 17.44896 0 0 1 16.384 4.096 19.41504 19.41504 0 0 1 7.45472 14.21312v75.48928a15.11424 15.11424 0 0 0 5.98016 12.77952 22.77376 22.77376 0 0 0 13.43488 5.69344h176.128a37.64224 37.64224 0 0 0 38.83008-36.864v-75.40736a35.51232 35.51232 0 0 0-37.35552-36.864z m-319.488 0l-29.85984-12.77952a44.76928 44.76928 0 0 1-23.87968-29.85984 43.70432 43.70432 0 0 1 11.96032-35.55328 42.84416 42.84416 0 0 1 38.83008-11.38688 46.40768 46.40768 0 0 1 31.37536 22.7328l32.768 66.80576z m259.8912-42.63936a44.76928 44.76928 0 0 1-23.87968 29.85984l-29.85984 12.77952h-61.44l32.768-68.23936a39.36256 39.36256 0 0 1 31.37536-22.7328 40.01792 40.01792 0 0 1 37.35552 11.38688 37.10976 37.10976 0 0 1 13.55776 36.94592z m0 0" fill="#FFFFFF" p-id="4922"></path></svg>