<?xml version="1.0" standalone="no"?><!DOCTYPE svg PUBLIC "-//W3C//DTD SVG 1.1//EN" "http://www.w3.org/Graphics/SVG/1.1/DTD/svg11.dtd"><svg t="1610443596975" class="icon" viewBox="0 0 1055 1024" version="1.1" xmlns="http://www.w3.org/2000/svg" p-id="2554" xmlns:xlink="http://www.w3.org/1999/xlink" width="206.0546875" height="200"><defs><style type="text/css"></style></defs><path d="M902.363725 1007.417004h-787.692308c-58.040486 0-99.497976-41.45749-107.789474-91.206478v-737.94332c0-58.040486 49.748988-99.497976 107.789474-91.206477h74.623482v-33.165992c0-24.874494 24.874494-41.45749 41.45749-33.165992 16.582996 0 33.165992 16.582996 33.165992 33.165992v33.165992h107.789473v-33.165992c0-24.874494 24.874494-41.45749 41.45749-33.165992 16.582996 0 33.165992 16.582996 33.165992 33.165992v33.165992h107.789474v-33.165992c0-24.874494 24.874494-41.45749 41.45749-33.165992 16.582996 0 33.165992 16.582996 33.165991 33.165992v33.165992h107.789474v-33.165992c0-24.874494 24.874494-41.45749 41.45749-33.165992 16.582996 0 33.165992 16.582996 33.165992 33.165992v33.165992h74.623482c58.040486 0 99.497976 41.45749 107.789473 91.206477v737.94332c8.291498 49.748988-33.165992 91.206478-91.206477 91.206478z m24.874494-804.275304c0-24.874494-24.874494-49.748988-49.748988-49.748987h-49.748988v33.165991c0 24.874494-24.874494 41.45749-41.45749 33.165992-16.582996 0-33.165992-16.582996-33.165992-33.165992v-33.165991h-107.789474v33.165991c0 24.874494-24.874494 41.45749-41.457489 33.165992-16.582996 0-33.165992-16.582996-33.165992-33.165992v-33.165991h-116.080972v33.165991c0 24.874494-24.874494 41.45749-41.45749 33.165992-16.582996 0-33.165992-16.582996-33.165992-33.165992v-33.165991h-107.789473v33.165991c0 24.874494-24.874494 41.45749-41.45749 33.165992-16.582996 0-33.165992-16.582996-33.165992-33.165992v-33.165991h-49.748988c-24.874494 0-49.748988 16.582996-49.748988 49.748987v140.955466h837.441296l-8.291498-140.955466z m-837.441296 215.578948v472.615384c0 24.874494 24.874494 49.748988 49.748988 49.748988h729.651822c24.874494 0 49.748988-16.582996 49.748988-49.748988v-472.615384h-829.149798z" p-id="2555"></path><path d="M910.655223 1024c-8.291498 0-8.291498 0 0 0h-787.692308c-58.040486 0-116.080972-41.45749-116.080972-107.789474v-737.94332c0-66.331984 58.040486-107.789474 116.080972-107.789473h66.331984v-24.874494c0-16.582996 8.291498-24.874494 16.582996-33.165992 8.291498-8.291498 24.874494-16.582996 41.45749-8.291498 24.874494 0 41.45749 24.874494 49.748987 49.748988v24.874494h82.91498v-24.874494c0-16.582996 8.291498-24.874494 16.582996-33.165992s24.874494-16.582996 41.45749-8.291498c24.874494 0 41.45749 24.874494 49.748988 49.748988v24.874494h82.91498v-24.874494c0-16.582996 8.291498-24.874494 16.582996-33.165992 8.291498-8.291498 24.874494-16.582996 41.457489-8.291498 24.874494 0 41.45749 24.874494 49.748988 49.748988v24.874494h82.91498v-24.874494c0-16.582996 8.291498-24.874494 16.582996-33.165992 8.291498-8.291498 24.874494-16.582996 41.45749-8.291498 24.874494 0 41.45749 24.874494 49.748988 49.748988v24.874494h66.331984c58.040486 0 116.080972 41.45749 116.080971 107.789473v737.94332c-33.165992 24.874494-82.91498 74.623482-140.955465 74.623482z m-8.291498-33.165992c49.748988 0 91.206478-33.165992 91.206477-82.91498v-729.651822c0-49.748988-41.45749-82.91498-91.206477-82.914979H802.865749v-49.748988c0-8.291498-8.291498-24.874494-24.874494-24.874494-8.291498 0-16.582996 0-16.582996 8.291498-8.291498 8.291498-8.291498 8.291498-8.291498 16.582996v49.748988h-132.663967v-49.748988c0-8.291498-8.291498-24.874494-24.874494-24.874494-16.582996 0-24.874494 8.291498-33.165992 24.874494v49.748988h-132.663968v-49.748988c0-8.291498-8.291498-24.874494-24.874494-24.874494-8.291498 0-16.582996 0-16.582996 8.291498-8.291498 8.291498-8.291498 8.291498-8.291498 16.582996v49.748988h-132.663967v-49.748988c0-8.291498-8.291498-24.874494-24.874494-24.874494-8.291498 0-16.582996 0-16.582996 8.291498-8.291498 8.291498-8.291498 8.291498-8.291498 16.582996v49.748988h-91.206478c-49.748988 0-91.206478 33.165992-91.206478 82.914979v729.651822c0 49.748988 41.45749 82.91498 91.206478 82.91498h795.983806z m-24.874494-41.45749h-737.94332c-16.582996 0-33.165992-8.291498-41.45749-16.582996s-16.582996-24.874494-16.582996-41.45749v-489.19838h862.31579v489.19838c-8.291498 33.165992-33.165992 58.040486-66.331984 58.040486z m-771.109312-522.364372v464.323886c0 8.291498 8.291498 16.582996 8.291498 24.874494 8.291498 8.291498 16.582996 8.291498 24.874494 8.291498h737.94332c24.874494 0 41.45749-16.582996 41.45749-33.165992v-464.323886h-812.566802z m837.441296-74.623482H81.505425v-157.538462c0-33.165992 33.165992-58.040486 66.331984-58.040485h66.331984v49.748987c0 8.291498 8.291498 24.874494 24.874494 24.874494 16.582996 0 24.874494-8.291498 33.165992-24.874494v-49.748987h132.663967v49.748987c0 8.291498 8.291498 24.874494 24.874494 24.874494 8.291498 0 16.582996 0 16.582996-8.291498 8.291498-8.291498 8.291498-8.291498 8.291498-16.582996v-49.748987h132.663968v49.748987c0 8.291498 8.291498 24.874494 24.874494 24.874494 8.291498 0 16.582996 0 16.582995-8.291498 8.291498-8.291498 8.291498-8.291498 8.291498-16.582996v-49.748987h132.663968v49.748987c0 8.291498 8.291498 24.874494 24.874494 24.874494 8.291498 0 16.582996 0 16.582996-8.291498 8.291498-8.291498 8.291498-8.291498 8.291498-16.582996v-49.748987h66.331984c33.165992 0 66.331984 24.874494 66.331984 58.040485v157.538462z m-837.441296-24.874494h812.566802v-132.663968c0-16.582996-16.582996-33.165992-41.45749-33.165991h-41.45749v24.874493c0 16.582996-8.291498 24.874494-16.582996 33.165992-8.291498 8.291498-24.874494 16.582996-41.45749 8.291498-24.874494 0-41.45749-24.874494-49.748988-49.748988v-24.874493h-82.91498v24.874493c0 16.582996-8.291498 24.874494-16.582996 33.165992s-24.874494 16.582996-41.457489 8.291498c-24.874494 0-41.45749-24.874494-49.748988-49.748987v-24.874494h-82.91498v24.874494c0 33.165992-24.874494 49.748988-58.040486 49.748987-24.874494 0-41.45749-24.874494-49.748988-49.748987v-24.874494h-82.914979v24.874494c0 33.165992-24.874494 49.748988-58.040486 49.748987-24.874494 0-41.45749-24.874494-49.748988-49.748987v-24.874494h-41.45749c-24.874494 0-41.45749 16.582996-41.45749 33.165991v149.246964z" p-id="2556"></path><path d="M728.242267 592.842105l-232.161943 232.161944c-16.582996 16.582996-41.45749 16.582996-49.748988 0l-124.37247-124.37247c-16.582996-16.582996-16.582996-41.45749 0-49.748988 16.582996-16.582996 41.45749-16.582996 49.748988 0l99.497976 99.497976 207.287449-207.28745c16.582996-16.582996 41.45749-16.582996 49.748988 0 16.582996 8.291498 16.582996 33.165992 0 49.748988 8.291498 0 8.291498 0 0 0z" p-id="2557"></path><path d="M471.20583 849.878543c-16.582996 0-24.874494-8.291498-41.45749-16.582996l-124.37247-124.37247c-8.291498-8.291498-16.582996-24.874494-16.582996-41.45749s8.291498-24.874494 16.582996-41.45749c24.874494-24.874494 58.040486-24.874494 74.623482 0l82.91498 82.91498 190.704453-190.704454c8.291498-8.291498 24.874494-16.582996 41.45749-16.582995s24.874494 8.291498 41.45749 16.582995c8.291498 8.291498 16.582996 24.874494 16.582996 41.45749s-8.291498 24.874494-16.582996 41.45749l-232.161943 232.161944c0 8.291498-16.582996 16.582996-33.165992 16.582996z m-124.37247-198.995952c-8.291498 0-8.291498 0-16.582996 8.291498 0 0-8.291498 8.291498-8.291498 16.582996s0 8.291498 8.291498 16.582996l124.37247 124.37247c8.291498 8.291498 24.874494 8.291498 33.165992 0l240.453441-240.453442v-8.291498c0-8.291498 0-8.291498-8.291498-16.582996s-8.291498-8.291498-16.582996-8.291498-8.291498 0-16.582996 8.291498l-215.578947 215.578948-107.789474-107.789474c0-8.291498-8.291498-8.291498-16.582996-8.291498z" p-id="2558"></path></svg>