<?xml version="1.0" standalone="no"?><!DOCTYPE svg PUBLIC "-//W3C//DTD SVG 1.1//EN" "http://www.w3.org/Graphics/SVG/1.1/DTD/svg11.dtd"><svg t="1610443411281" class="icon" viewBox="0 0 1024 1024" version="1.1" xmlns="http://www.w3.org/2000/svg" p-id="2301" xmlns:xlink="http://www.w3.org/1999/xlink" width="200" height="200"><defs><style type="text/css"></style></defs><path d="M927.396226 830.792453l-90.163522-148.125786V392.855346c-12.880503-128.805031-96.603774-238.289308-225.408805-276.930818C611.823899 57.962264 560.301887 12.880503 502.339623 12.880503c-57.962264 0-103.044025 45.081761-103.044026 103.044025-115.924528 38.641509-206.08805 148.125786-218.968553 276.930818v289.811321L90.163522 837.232704c-6.440252 12.880503-6.440252 19.320755 0 32.201258s19.320755 19.320755 32.201258 12.880503h218.968553c25.761006 96.603774 122.36478 148.125786 218.968554 122.36478 57.962264-19.320755 103.044025-64.402516 122.36478-122.36478H908.075472c19.320755 0 32.201258-12.880503 32.201258-32.201257 0-6.440252-6.440252-12.880503-12.880504-19.320755M508.779874 77.283019c12.880503 0 25.761006 6.440252 32.201258 19.320755-19.320755 0-38.641509 0-57.962264 6.440251 6.440252-12.880503 12.880503-25.761006 25.761006-25.761006m0 869.433962c-45.081761 0-77.283019-25.761006-96.603773-64.402516h193.207547c-12.880503 45.081761-51.522013 64.402516-96.603774 64.402516m-328.45283-122.36478l64.402516-115.924528c0-6.440252 6.440252-12.880503 6.440251-12.880503V392.855346C264.050314 251.169811 392.855346 148.125786 540.981132 161.006289c122.36478 12.880503 218.968553 109.484277 231.849057 231.849057v302.691824c0 6.440252 0 12.880503 6.440251 12.880503l70.842768 109.484277-669.786164 6.440251z" p-id="2302"></path><path d="M508.779874 1024c-32.201258 0-64.402516-6.440252-90.163522-25.761006-38.641509-25.761006-70.842767-57.962264-90.163522-103.044025H115.924528c-19.320755 0-32.201258-6.440252-38.641509-19.320755-6.440252-12.880503-6.440252-32.201258 0-45.081761l90.163522-148.125786V392.855346C180.327044 257.610063 270.490566 148.125786 392.855346 103.044025 399.295597 45.081761 450.81761 0 508.779874 0s115.924528 45.081761 122.36478 103.044025c128.805031 45.081761 212.528302 154.566038 225.408805 283.371069v289.811321l83.723271 141.685535c6.440252 6.440252 12.880503 19.320755 12.880503 32.201258 0 25.761006-19.320755 45.081761-45.081761 45.081761H689.106918c-19.320755 57.962264-64.402516 103.044025-128.805031 122.364779-12.880503 6.440252-32.201258 6.440252-51.522013 6.440252z m-167.446541-148.125786h12.880503v6.440251c12.880503 45.081761 38.641509 77.283019 77.283019 96.603774 38.641509 19.320755 83.72327 25.761006 122.36478 12.880503 51.522013-12.880503 96.603774-57.962264 109.484277-109.484277v-6.440251h231.849057c12.880503 0 19.320755-6.440252 19.320754-19.320755 0-6.440252 0-6.440252-6.440251-12.880503l6.440251-6.440252h6.440252l-90.163522-148.125786V392.855346c-12.880503-122.36478-96.603774-225.408805-218.968554-264.050315h-6.440251v-6.440251c0-25.761006-12.880503-45.081761-25.761006-64.402516-19.320755-19.320755-38.641509-25.761006-64.402516-25.761006C457.257862 25.761006 418.616352 64.402516 418.616352 115.924528v6.440252l-6.440251 6.440251c-122.36478 38.641509-206.08805 141.685535-218.968554 264.050315v296.251572L96.603774 843.672956c-6.440252 6.440252-6.440252 12.880503 0 19.320755 6.440252 6.440252 12.880503 6.440252 19.320754 12.880503h225.408805z m167.446541 83.72327c-45.081761 0-90.163522-25.761006-103.044025-70.842767l-12.880503-12.880503h231.849057l-6.440252 19.320755c-19.320755 38.641509-57.962264 64.402516-109.484277 64.402515zM437.937107 901.63522c19.320755 25.761006 45.081761 38.641509 77.283019 38.64151 25.761006 0 57.962264-12.880503 77.283019-38.64151H437.937107z m425.056604-64.402516h-708.427673l19.320754-19.320754L244.72956 708.427673V392.855346c19.320755-148.125786 154.566038-257.610063 302.691824-244.72956 128.805031 12.880503 225.408805 115.924528 238.289308 238.289308v309.132076l77.283019 141.685534zM199.647799 811.471698h618.264151l-57.962264-90.163522c-6.440252-6.440252-6.440252-12.880503-6.440252-25.761006V392.855346C740.628931 276.930818 650.465409 186.767296 534.540881 173.886792c-128.805031-12.880503-257.610063 83.72327-270.490567 218.968554v296.251572c0 6.440252 0 19.320755-6.440251 25.761007L199.647799 811.471698zM463.698113 115.924528l6.440252-19.320754c6.440252-19.320755 19.320755-32.201258 38.641509-32.201258s32.201258 12.880503 38.64151 32.201258l6.440251 19.320754-19.320754-6.440251h-51.522013l-19.320755 6.440251z" p-id="2303"></path></svg>