<?xml version="1.0" standalone="no"?><!DOCTYPE svg PUBLIC "-//W3C//DTD SVG 1.1//EN" "http://www.w3.org/Graphics/SVG/1.1/DTD/svg11.dtd"><svg t="1610443268330" class="icon" viewBox="0 0 1250 1024" version="1.1" xmlns="http://www.w3.org/2000/svg" p-id="1532" xmlns:xlink="http://www.w3.org/1999/xlink" width="244.140625" height="200"><defs><style type="text/css"></style></defs><path d="M780.590164 478.42623c109.114754-92.327869 134.295082-251.803279 41.967213-369.311476C738.622951 0 579.147541-16.786885 461.639344 75.540984c-109.114754 83.934426-134.295082 251.803279-41.967213 360.918032 16.786885 16.786885 25.180328 33.57377 41.967213 41.967214-167.868852 67.147541-268.590164 226.622951-276.983606 402.885245v83.934427c0 25.180328 16.786885 41.967213 41.967213 41.967213H1007.213115c25.180328 0 41.967213-16.786885 41.967213-41.967213v-83.934427c8.393443-176.262295-100.721311-335.737705-268.590164-402.885245zM436.459016 276.983607c0-100.721311 83.934426-184.655738 184.655738-193.049181 100.721311 0 184.655738 83.934426 193.04918 184.655738 0 100.721311-83.934426 184.655738-184.655737 193.04918-109.114754 0-193.04918-75.540984-193.049181-184.655737z m553.967214 663.081967H251.803279v-41.967213c0-201.442623 167.868852-369.311475 369.311475-369.311476 201.442623 0 369.311475 167.868852 369.311476 369.311476v41.967213z m-705.049181-419.672131c33.57377-8.393443 41.967213-33.57377 33.573771-50.360656 0-16.786885-16.786885-25.180328-25.180328-25.180328-41.967213-25.180328-75.540984-75.540984-75.540984-125.901639 8.393443-58.754098 41.967213-109.114754 100.721312-125.90164 16.786885-25.180328 25.180328-50.360656 41.967213-67.147541 0-8.393443 8.393443-8.393443 8.393442-16.786885h-8.393442c-117.508197 0-218.229508 92.327869-218.229508 218.229508 0 50.360656 16.786885 109.114754 58.754098 142.688525C92.327869 528.786885 16.786885 646.295082 16.786885 772.196721v67.147541c0 25.180328 16.786885 41.967213 41.967213 41.967213h75.540984c0-25.180328 0-50.360656 8.393443-75.540983h-50.360656v-33.573771c0-117.508197 83.934426-226.622951 193.04918-251.803278z m755.409836-50.360656c83.934426-83.934426 75.540984-226.622951-16.786885-302.163935-41.967213-33.57377-92.327869-58.754098-151.081967-58.754098h-8.393443c0 8.393443 8.393443 8.393443 8.393443 16.786885 25.180328 16.786885 41.967213 41.967213 50.360656 75.540984 58.754098 16.786885 100.721311 67.147541 109.114754 125.901639 0 50.360656-33.57377 100.721311-75.540984 117.508197-25.180328 8.393443-33.57377 33.57377-25.180328 50.360656 8.393443 16.786885 16.786885 25.180328 25.180328 25.180328h8.393443c117.508197 25.180328 193.04918 134.295082 193.04918 251.803278v33.573771h-58.754098c8.393443 25.180328 8.393443 50.360656 8.393442 75.540983h75.540984c25.180328 0 41.967213-16.786885 41.967213-41.967213v-67.147541c0-125.901639-67.147541-243.409836-184.655738-302.163934z" p-id="1533"></path><path d="M1015.606557 1024H235.016393c-16.786885 0-33.57377-8.393443-41.967213-16.786885-8.393443-8.393443-16.786885-25.180328-16.786885-41.967213v-83.934427c0-176.262295 100.721311-327.344262 260.196721-402.885245-16.786885-8.393443-25.180328-16.786885-33.57377-33.573771C310.557377 327.344262 335.737705 151.081967 453.245902 58.754098c117.508197-92.327869 293.770492-75.540984 386.09836 50.360656 41.967213 58.754098 67.147541 134.295082 58.754099 201.442623-8.393443 67.147541-33.57377 125.901639-83.934427 167.868853 159.47541 75.540984 260.196721 226.622951 260.196722 402.885245v83.934427c0 16.786885-8.393443 33.57377-16.786886 41.967213-16.786885 16.786885-25.180328 16.786885-41.967213 16.786885zM621.114754 33.57377c-50.360656 0-100.721311 16.786885-151.081967 50.360656-100.721311 83.934426-117.508197 235.016393-41.967213 344.131148 8.393443 16.786885 25.180328 33.57377 41.967213 41.967213l25.180328 16.786885-25.180328 8.393443c-159.47541 58.754098-260.196721 209.836066-260.196721 386.09836v83.934427c0 8.393443 0 16.786885 8.393442 16.786885 8.393443 8.393443 8.393443 8.393443 16.786885 8.393443h780.590164c8.393443 0 16.786885 0 16.786886-8.393443 8.393443-8.393443 8.393443-8.393443 8.393442-16.786885v-83.934427c0-167.868852-100.721311-318.95082-260.196721-386.09836h-41.967213l41.967213-33.573771c50.360656-41.967213 83.934426-100.721311 92.327869-159.47541s-8.393443-125.901639-50.360656-176.262295C763.803279 67.147541 696.655738 33.57377 621.114754 33.57377z m386.098361 923.278689H235.016393v-58.754098c0-209.836066 176.262295-386.098361 386.098361-386.098361 209.836066 0 386.098361 176.262295 386.098361 386.098361v58.754098zM268.590164 923.278689h705.04918v-25.180328c0-193.04918-159.47541-352.52459-352.52459-352.524591-193.04918 0-352.52459 159.47541-352.52459 352.524591v25.180328z m-117.508197-25.180328H58.754098c-33.57377 0-58.754098-25.180328-58.754098-58.754099v-67.147541c0-125.901639 67.147541-243.409836 176.262295-310.557377-33.57377-41.967213-50.360656-92.327869-50.360656-142.688524C125.901639 193.04918 235.016393 83.934426 360.918033 83.934426h41.967213l-16.786885 33.573771c0 8.393443-8.393443 8.393443-8.393443 16.786885-16.786885 16.786885-33.57377 41.967213-41.967213 67.147541v8.393443h-8.393443c-50.360656 16.786885-83.934426 58.754098-92.327869 109.114754 0 41.967213 25.180328 83.934426 67.147541 100.721311 16.786885 8.393443 33.57377 25.180328 41.967214 41.967213 0 16.786885 0 33.57377-8.393443 41.967213-8.393443 16.786885-16.786885 25.180328-33.573771 33.573771h-8.393442c-109.114754 25.180328-184.655738 125.901639-184.655738 235.016393v16.786886H167.868852l-8.393442 16.786885c-8.393443 25.180328-8.393443 50.360656-8.393443 75.540983v16.786886z m193.049181-772.196722C243.409836 134.295082 167.868852 218.229508 159.47541 318.95082c0 50.360656 16.786885 100.721311 50.360656 134.295082l16.786885 16.786885-16.786885 8.393443C100.721311 537.180328 33.57377 646.295082 33.57377 772.196721v67.147541c0 16.786885 8.393443 25.180328 25.180328 25.180328h58.754099c0-16.786885 0-25.180328 8.393442-41.967213H75.540984v-50.360656c0-125.901639 83.934426-235.016393 209.836065-268.590164h8.393443c8.393443 0 8.393443-8.393443 16.786885-8.393442v-16.786885c0-8.393443-8.393443-16.786885-16.786885-16.786886-50.360656-25.180328-83.934426-75.540984-83.934426-134.295082 0-67.147541 41.967213-117.508197 100.721311-142.688524 8.393443-16.786885 16.786885-41.967213 33.573771-58.754099z m839.344262 772.196722H1091.147541v-16.786886c0-25.180328 0-50.360656-8.393443-75.540983l-8.393442-16.786885h67.147541v-16.786886c0-109.114754-75.540984-209.836066-184.655738-235.016393h-8.393443c-16.786885-8.393443-33.57377-16.786885-41.967213-41.967213 0-25.180328 16.786885-58.754098 41.967213-75.540984 41.967213-16.786885 67.147541-58.754098 67.147541-100.721311-8.393443-50.360656-41.967213-92.327869-100.721311-109.114754h-8.393443v-8.393443c-8.393443-25.180328-25.180328-50.360656-41.967213-75.540984 0-8.393443-8.393443-8.393443-8.393442-16.786885l-16.786886-16.786885H889.704918c58.754098 0 117.508197 25.180328 159.47541 58.754098 41.967213 41.967213 75.540984 100.721311 75.540983 159.47541s-16.786885 109.114754-50.360655 151.081967c109.114754 67.147541 176.262295 184.655738 176.262295 310.557377v67.147541c0 16.786885-8.393443 33.57377-16.786885 41.967213-16.786885 8.393443-33.57377 16.786885-50.360656 16.786886z m-58.754099-33.573771h58.754099c8.393443 0 16.786885 0 16.786885-8.393442 8.393443-8.393443 8.393443-8.393443 8.393443-16.786886v-67.147541c0-125.901639-67.147541-235.016393-176.262295-293.770491l-33.573771-16.786886 33.573771-8.393442c33.57377-41.967213 50.360656-83.934426 50.360655-142.688525 0-50.360656-25.180328-100.721311-67.147541-134.295082-33.57377-25.180328-75.540984-50.360656-117.508196-50.360656 16.786885 16.786885 25.180328 41.967213 33.57377 58.754099 58.754098 16.786885 100.721311 67.147541 109.114754 134.295082 0 58.754098-33.57377 109.114754-83.934426 134.295082-16.786885 8.393443-25.180328 16.786885-16.786885 33.57377 0 8.393443 8.393443 16.786885 16.786885 16.786885h8.393443C1091.147541 537.180328 1175.081967 646.295082 1175.081967 772.196721v50.360656h-58.754098c8.393443 16.786885 8.393443 25.180328 8.393442 41.967213z m-503.606557-386.09836C512 478.42623 419.672131 394.491803 419.672131 276.983607c0-58.754098 16.786885-109.114754 58.754099-142.688525 41.967213-41.967213 92.327869-58.754098 142.688524-58.754098 50.360656 0 109.114754 16.786885 142.688525 58.754098 41.967213 33.57377 67.147541 83.934426 67.147541 142.688525 0 109.114754-92.327869 201.442623-209.836066 201.442623z m0-369.311476c-41.967213 0-83.934426 16.786885-117.508197 50.360656-33.57377 33.57377-50.360656 75.540984-50.360655 117.508197 0 92.327869 75.540984 167.868852 167.868852 167.868852s167.868852-75.540984 167.868853-176.262295c8.393443-83.934426-75.540984-159.47541-167.868853-159.47541z" p-id="1534"></path></svg>