<?xml version="1.0" standalone="no"?><!DOCTYPE svg PUBLIC "-//W3C//DTD SVG 1.1//EN" "http://www.w3.org/Graphics/SVG/1.1/DTD/svg11.dtd"><svg t="1610443247126" class="icon" viewBox="0 0 1024 1024" version="1.1" xmlns="http://www.w3.org/2000/svg" p-id="1402" xmlns:xlink="http://www.w3.org/1999/xlink" width="200" height="200"><defs><style type="text/css"></style></defs><path d="M926.206183 755.409836c-13.429508-13.429508-33.57377-20.144262-47.003278-13.429508l-362.596722 194.727869-376.026229-194.727869c-20.144262-6.714754-40.288525 0-47.003279 13.429508-6.714754 13.429508 0 33.57377 13.429508 40.288525l389.455738 201.442623h20.144262c6.714754 0 13.429508 0 20.144263-6.714754l389.455737-201.442623c6.714754 6.714754 13.429508-20.144262 0-33.573771z" p-id="1403"></path><path d="M516.606183 1024c-6.714754 0-6.714754-6.714754 0 0h-33.57377l-389.455738-201.442623c-20.144262-13.429508-33.57377-40.288525-20.144262-60.432787v-6.714754c13.429508-20.144262 40.288525-26.859016 67.147541-20.144262l369.311475 194.727869 355.881967-194.727869c26.859016-13.429508 53.718033 0 73.862295 20.144262v13.429508c6.714754 6.714754 6.714754 20.144262 0 26.859017-6.714754 13.429508-13.429508 20.144262-26.859016 20.144262l-382.740984 201.442623c6.714754 0-6.714754 6.714754-13.429508 6.714754z m-20.144262-40.288525h33.57377l396.170492-208.157377-6.714754-6.714754-13.429508-13.429508h-20.144262l-369.311476 201.442623-389.455737-201.442623c-6.714754 0-20.144262 0-26.859017 6.714754 0 6.714754 0 13.429508 6.714754 20.144262l389.455738 201.442623z" p-id="1404"></path><path d="M926.206183 486.819672c-13.429508-13.429508-33.57377-20.144262-47.003278-13.429508l-362.596722 194.727869-376.026229-188.013115c-20.144262-6.714754-40.288525 0-47.003279 13.429508-6.714754 13.429508 0 26.859016 13.429508 33.573771l389.455738 201.442623c6.714754 0 13.429508 6.714754 20.144262 6.714754 6.714754 0 13.429508 0 20.144263-6.714754l389.455737-201.442623c6.714754 0 13.429508-13.429508 0-40.288525z" p-id="1405"></path><path d="M516.606183 762.12459c-6.714754 0-6.714754 0 0 0-13.429508 0-20.144262 0-20.144262-6.714754h-13.429508l-389.455738-201.442623c-13.429508-6.714754-20.144262-13.429508-20.144262-26.859016-6.714754-13.429508 0-20.144262 0-33.573771v-6.714754c13.429508-20.144262 40.288525-26.859016 67.147541-20.144262l369.311475 188.013115 355.881967-194.727869c26.859016-13.429508 53.718033 0 73.862295 20.144262l13.429509 26.859016v13.429509c0 13.429508-13.429508 20.144262-20.144263 26.859016l-382.740983 201.442623c-13.429508 6.714754-26.859016 13.429508-33.573771 13.429508z m-20.144262-40.288524c6.714754 0 6.714754 0 13.429508 6.714754H530.035691l389.455738-201.442623s6.714754 0 6.714754-6.714754c0 0 0-6.714754-6.714754-13.429509-13.429508-20.144262-26.859016-20.144262-33.57377-13.429508l-369.311476 201.442623-389.455737-194.727869c-6.714754 0-20.144262 0-26.859017 6.714754v6.714755s0 6.714754 6.714754 6.714754l389.455738 201.442623z" p-id="1406"></path><path d="M932.920937 278.662295c0-6.714754 0-13.429508-6.714754-13.429508l-6.714754-6.714754-389.455738-235.016394c-13.429508-6.714754-26.859016-6.714754-40.288524 0l-389.455738 228.30164-6.714754 6.714754c-6.714754 13.429508-6.714754 13.429508-6.714754 20.144262 0 6.714754 0 13.429508 6.714754 20.144262l6.714754 6.714754 389.455738 228.30164c6.714754 0 13.429508 6.714754 20.144262 6.714754 6.714754 0 13.429508 0 20.144262-6.714754l389.455738-221.586885 6.714754-6.714755c6.714754-13.429508 6.714754-20.144262 6.714754-26.859016z m-423.029508 188.013115l-322.308197-188.013115 322.308197-188.013115 322.308197 188.013115-322.308197 188.013115z" p-id="1407"></path><path d="M516.606183 553.967213c-6.714754 0-6.714754 0 0 0-13.429508 0-20.144262 0-20.144262-6.714754h-13.429508l-389.455738-228.301639-6.714754-6.714754c-6.714754-6.714754-13.429508-20.144262-13.429508-33.573771 0-6.714754 0-13.429508 6.714754-26.859016v-6.714754l13.429508-6.714755 389.455738-228.301639c13.429508-13.429508 40.288525-13.429508 60.432787 0l389.455737 241.731148c6.714754 0 13.429508 6.714754 13.429509 26.859016v6.714754c0 6.714754-6.714754 20.144262-13.429509 26.859017l-13.429508 6.714754-389.455738 221.586885c6.714754 13.429508-6.714754 13.429508-13.429508 13.429508z m-20.144262-40.288524c6.714754 0 6.714754 0 13.429508 6.714754h13.429508l389.455738-235.016394v-13.429508l-6.714754-6.714754-382.740984-228.301639c-6.714754-6.714754-20.144262-6.714754-26.859016 0l-389.455738 228.301639c0 6.714754 0 6.714754-6.714754 6.714754v13.429508l6.714754 6.714754 389.455738 221.586886z m13.429508-26.859017l-355.881967-208.157377 355.881967-208.157377 355.881967 208.157377-355.881967 208.157377z m-288.734426-208.157377l288.734426 167.868853 288.734426-167.868853-288.734426-167.868852-288.734426 167.868852z" p-id="1408"></path></svg>