<?xml version="1.0" standalone="no"?><!DOCTYPE svg PUBLIC "-//W3C//DTD SVG 1.1//EN" "http://www.w3.org/Graphics/SVG/1.1/DTD/svg11.dtd"><svg t="1610443605891" class="icon" viewBox="0 0 1024 1024" version="1.1" xmlns="http://www.w3.org/2000/svg" p-id="2682" xmlns:xlink="http://www.w3.org/1999/xlink" width="200" height="200"><defs><style type="text/css"></style></defs><path d="M936.475986 598.766463c-34.855208-48.797291-34.855208-125.478749 0-174.276039 48.797291-69.710416 34.855208-160.333956-34.855208-209.131248-27.884166-20.913125-55.768333-27.884166-83.652499-27.884166h-27.884166c-62.739374 0-118.507707-34.855208-139.420832-83.652499-34.855208-76.681457-125.478749-111.536665-202.160206-76.681458-27.884166 13.942083-55.768333 41.82625-69.710415 76.681458-27.884166 48.797291-83.652499 83.652499-139.420832 83.652499h-27.884167c-90.623541 0-153.362915 69.710416-153.362914 153.362915 0 27.884166 6.971042 62.739374 27.884166 83.652499 41.82625 55.768333 41.82625 125.478749 0 174.276039-48.797291 69.710416-34.855208 160.333956 34.855208 209.131248 27.884166 20.913125 55.768333 27.884166 83.652499 27.884166h13.942083c62.739374-6.971042 125.478749 27.884166 153.362915 90.623541 34.855208 76.681457 118.507707 111.536665 195.189164 76.681457 34.855208-13.942083 62.739374-41.82625 76.681458-76.681457 27.884166-62.739374 90.623541-97.594582 153.362915-90.623541h13.942083c83.652499 0 146.391873-69.710416 146.391873-146.391873 6.971042-34.855208-6.971042-62.739374-20.913125-90.623541z m-90.62354-20.913124c6.971042 20.913125 20.913125 41.82625 34.855208 62.739374 13.942083 20.913125 20.913125 55.768333 6.971041 76.681457-6.971042 13.942083-13.942083 20.913125-27.884166 27.884167-13.942083 6.971042-27.884166 13.942083-41.82625 13.942083h-6.971041c-97.594582-6.971042-188.218123 41.82625-223.073331 132.44979-6.971042 13.942083-13.942083 27.884166-27.884166 34.855208-27.884166 13.942083-55.768333 13.942083-83.652499 0-13.942083-6.971042-20.913125-20.913125-27.884167-34.855208-41.82625-90.623541-132.44979-139.420832-223.07333-132.44979h-6.971042c-13.942083 0-27.884166-6.971042-41.826249-13.942083-13.942083-6.971042-20.913125-20.913125-27.884167-27.884167-20.913125-20.913125-20.913125-48.797291 0-76.681457 13.942083-20.913125 27.884166-41.82625 34.855208-62.739374 6.971042-20.913125 13.942083-41.82625 13.942083-69.710416 0-20.913125-6.971042-48.797291-13.942083-69.710416-13.942083-13.942083-20.913125-34.855208-34.855208-55.768333-20.913125-20.913125-20.913125-55.768333-6.971041-76.681457 0-13.942083 13.942083-27.884166 20.913124-34.855208 13.942083-6.971042 27.884166-13.942083 41.82625-13.942083h27.884166c90.623541 0 167.304998-48.797291 202.160206-132.44979 6.971042-13.942083 13.942083-27.884166 27.884167-34.855208 34.855208-6.971042 62.739374-6.971042 90.62354 6.971041 13.942083 6.971042 20.913125 20.913125 27.884166 34.855208 34.855208 76.681457 111.536665 132.44979 202.160206 132.44979h27.884167c13.942083 0 27.884166 6.971042 41.826249 13.942083 13.942083 6.971042 20.913125 20.913125 27.884167 27.884167 13.942083 20.913125 13.942083 55.768333-6.971042 76.681457-41.82625 55.768333-48.797291 132.44979-27.884166 195.189165z" p-id="2683"></path><path d="M511.24245 1024c-62.739374 0-118.507707-34.855208-146.391874-97.594582-20.913125-55.768333-83.652499-90.623541-139.420831-83.652499h-20.913125c-34.855208 0-62.739374-13.942083-90.623541-27.884167-34.855208-20.913125-55.768333-62.739374-62.739374-104.565623-6.971042-41.82625 6.971042-83.652499 27.884166-118.507707 34.855208-48.797291 34.855208-111.536665 0-160.333957-20.913125-27.884166-27.884166-55.768333-27.884166-90.62354 0-90.623541 69.710416-160.333956 160.333956-160.333957h20.913125c62.739374 6.971042 118.507707-27.884166 139.420832-83.652499 6.971042-34.855208 41.82625-62.739374 76.681457-83.652499 41.82625-13.942083 83.652499-20.913125 118.507707 0 41.82625 13.942083 69.710416 41.82625 90.623541 83.652499 20.913125 55.768333 83.652499 90.623541 139.420832 83.652499h20.913124c34.855208 0 62.739374 13.942083 90.623541 27.884167 69.710416 48.797291 83.652499 153.362915 34.855208 223.07333-34.855208 48.797291-34.855208 111.536665 0 160.333957 20.913125 27.884166 27.884166 55.768333 27.884166 90.62354 0 41.82625-13.942083 83.652499-48.797291 111.536666-27.884166 27.884166-69.710416 48.797291-111.536665 48.797291h-20.913125c-62.739374-6.971042-118.507707 27.884166-139.420832 83.652499-13.942083 34.855208-41.82625 62.739374-83.652499 83.652499-13.942083 6.971042-34.855208 13.942083-55.768332 13.942083z m-271.870622-202.160206c62.739374 0 118.507707 34.855208 146.391873 97.594582 27.884166 69.710416 111.536665 104.565624 181.247081 69.710416 34.855208-13.942083 55.768333-41.82625 69.710416-69.710416 27.884166-62.739374 90.623541-104.565624 160.333957-90.62354h13.942083c34.855208 0 69.710416-13.942083 97.594582-41.82625s41.82625-62.739374 41.82625-97.594582c0-27.884166-6.971042-55.768333-27.884167-83.652499-41.82625-55.768333-41.82625-132.44979 0-188.218123 41.82625-62.739374 34.855208-146.391873-27.884166-195.189164-20.913125-13.942083-48.797291-27.884166-83.652499-27.884167h-27.884167c-62.739374 0-118.507707-34.855208-146.391873-97.594582-13.942083-34.855208-41.82625-62.739374-76.681457-69.710416-34.855208-13.942083-69.710416-13.942083-104.565624 0s-55.768333 41.82625-69.710416 69.710416c-27.884166 69.710416-83.652499 104.565624-146.391873 104.565624h-27.884167c-76.681457 0-139.420832 62.739374-139.420831 139.420832 0 27.884166 6.971042 55.768333 27.884166 83.652499 41.82625 55.768333 41.82625 132.44979 0 188.218122-20.913125 27.884166-27.884166 69.710416-27.884166 104.565624 6.971042 34.855208 27.884166 69.710416 55.768332 90.623541 20.913125 13.942083 48.797291 27.884166 83.652499 27.884166h13.942084c0-6.971042 6.971042-13.942083 13.942083-13.942083z m271.870622 132.44979c-13.942083 0-34.855208-6.971042-48.797291-13.942083-13.942083-6.971042-27.884166-20.913125-34.855208-41.82625-34.855208-83.652499-125.478749-132.44979-216.10229-125.478748h-13.942083c-13.942083 0-34.855208-6.971042-41.826249-13.942083-13.942083-6.971042-20.913125-20.913125-27.884167-34.855208-13.942083-27.884166-13.942083-62.739374 6.971042-90.623541 13.942083-20.913125 20.913125-34.855208 27.884166-62.739374 6.971042-20.913125 6.971042-41.82625 6.971042-62.739374 0-20.913125 0-41.82625-6.971042-62.739375 0-20.913125-13.942083-41.82625-27.884166-55.768332-13.942083-27.884166-20.913125-62.739374-6.971042-90.623541 6.971042-13.942083 20.913125-27.884166 27.884167-34.855208 13.942083-6.971042 27.884166-13.942083 48.797291-13.942083h27.884166c83.652499 0 160.333956-48.797291 195.189165-125.478748 6.971042-13.942083 20.913125-27.884166 34.855208-41.82625 27.884166-13.942083 62.739374-13.942083 90.62354 0 13.942083 6.971042 27.884166 20.913125 34.855208 41.82625 34.855208 76.681457 111.536665 125.478749 195.189164 125.478748h34.855208c13.942083 0 34.855208 6.971042 41.82625 13.942083 13.942083 6.971042 20.913125 20.913125 27.884166 34.855208 13.942083 27.884166 13.942083 62.739374-6.971041 90.623541-41.82625 55.768333-48.797291 125.478749-27.884167 188.218123v6.971041c6.971042 20.913125 13.942083 34.855208 27.884167 48.797291 20.913125 27.884166 20.913125 62.739374 6.971041 90.623541-6.971042 13.942083-20.913125 27.884166-27.884166 34.855208-13.942083 6.971042-27.884166 13.942083-41.82625 13.942083h-13.942083c-90.623541-6.971042-181.247081 41.82625-216.102289 125.478748-6.971042 13.942083-20.913125 27.884166-34.855208 41.82625-6.971042 6.971042-27.884166 13.942083-41.826249 13.942083z m-271.870622-202.160206c90.623541 0 174.27604 55.768333 209.131247 139.420832 6.971042 13.942083 13.942083 20.913125 27.884167 27.884166 20.913125 13.942083 48.797291 13.942083 69.710416 0 13.942083-6.971042 20.913125-13.942083 27.884166-27.884166 41.82625-90.623541 132.44979-146.391873 237.015414-139.420832h6.971041c13.942083 0 20.913125 0 34.855208-6.971041 6.971042-6.971042 20.913125-13.942083 20.913125-27.884167 13.942083-20.913125 6.971042-48.797291-6.971042-69.710416-13.942083-20.913125-27.884166-41.82625-34.855207-62.739374v-6.971041c-20.913125-69.710416-6.971042-139.420832 34.855207-195.189165 13.942083-20.913125 13.942083-48.797291 6.971042-69.710416-6.971042-13.942083-13.942083-20.913125-20.913125-27.884166-6.971042-6.971042-20.913125-6.971042-34.855208-6.971042h-34.855208c-90.623541 0-174.27604-55.768333-209.131247-139.420831-6.971042-13.942083-13.942083-27.884166-27.884166-34.855208-20.913125-13.942083-48.797291-13.942083-69.710416 0-13.942083 6.971042-20.913125 20.913125-27.884167 27.884166-34.855208 83.652499-118.507707 139.420832-209.131247 139.420832h-27.884167-6.971041c-13.942083 0-20.913125 0-34.855208 6.971041-6.971042 6.971042-13.942083 20.913125-20.913125 27.884167-13.942083 20.913125-6.971042 48.797291 6.971042 69.710416 13.942083 20.913125 27.884166 41.82625 34.855208 62.739374 6.971042 27.884166 6.971042 48.797291 6.971041 76.681457 0 20.913125-6.971042 48.797291-13.942083 69.710416-6.971042 20.913125-13.942083 41.82625-27.884166 62.739374-13.942083 20.913125-13.942083 48.797291-6.971042 69.710416 6.971042 13.942083 13.942083 20.913125 20.913125 27.884167 6.971042 6.971042 20.913125 13.942083 34.855208 6.971041h34.855208z" p-id="2684"></path><path d="M511.24245 354.780008c-83.652499 0-153.362915 69.710416-153.362915 153.362915s69.710416 153.362915 153.362915 153.362915 153.362915-69.710416 153.362915-153.362915c0-83.652499-69.710416-153.362915-153.362915-153.362915z m0 250.957497c-48.797291 0-90.623541-41.82625-90.623541-90.623541s41.82625-90.623541 90.623541-90.62354c48.797291 0 90.623541 41.82625 90.62354 90.62354 0 48.797291-41.82625 90.623541-90.62354 90.623541z" p-id="2685"></path><path d="M511.24245 682.418962c-90.623541 0-167.304998-76.681457-167.304998-167.304998 0-90.623541 76.681457-167.304998 167.304998-167.304998 90.623541 0 167.304998 76.681457 167.304998 167.304998 0 90.623541-76.681457 167.304998-167.304998 167.304998z m0-313.696871c-83.652499 0-146.391873 62.739374-146.391874 146.391873s62.739374 146.391873 146.391874 146.391874c83.652499 0 146.391873-62.739374 146.391873-146.391874s-62.739374-146.391873-146.391873-146.391873z m0 243.986455c-55.768333 0-104.565624-41.82625-104.565624-97.594582s48.797291-104.565624 104.565624-104.565624 104.565624 41.82625 104.565623 104.565624c0 55.768333-41.82625 97.594582-90.62354 104.565624l-13.942083-6.971042z m0-181.247081c-41.82625 0-83.652499 34.855208-83.652499 83.652499 0 41.82625 34.855208 76.681457 76.681457 83.652499h6.971042c41.82625 0 83.652499-34.855208 83.652499-83.652499s-41.82625-83.652499-83.652499-83.652499z" p-id="2686"></path></svg>