<?xml version="1.0" standalone="no"?><!DOCTYPE svg PUBLIC "-//W3C//DTD SVG 1.1//EN" "http://www.w3.org/Graphics/SVG/1.1/DTD/svg11.dtd"><svg t="1610445465057" class="icon" viewBox="0 0 1143 1024" version="1.1" xmlns="http://www.w3.org/2000/svg" p-id="1554" xmlns:xlink="http://www.w3.org/1999/xlink" width="223.2421875" height="200"><defs><style type="text/css"></style></defs><path d="M160.789535 363.916647v-253.878213a84.626071 84.626071 0 0 1 84.626071-84.626071h660.083353a84.626071 84.626071 0 0 1 84.626071 84.626071v245.415606h50.775643a84.626071 84.626071 0 0 1 84.626071 84.62607v465.443391a84.626071 84.626071 0 0 1-84.626071 84.626071h-930.886781a84.626071 84.626071 0 0 1-84.626071-84.626071V440.08011a84.626071 84.626071 0 0 1 84.626071-84.62607h50.775643z m770.097245 0v-253.878213a22.849039 22.849039 0 0 0-25.387821-25.387821H236.952999a27.080343 27.080343 0 0 0-25.387822 25.387821v245.415606a84.626071 84.626071 0 0 1 84.626071 84.62607v220.027785a22.849039 22.849039 0 0 0 25.387822 25.387821h499.293818a22.849039 22.849039 0 0 0 25.387821-25.387821V440.08011a77.855985 77.855985 0 0 1 84.626071-76.163463zM76.163464 440.08011v465.443391a22.849039 22.849039 0 0 0 25.387821 25.387821h930.886781a22.849039 22.849039 0 0 0 25.387821-25.387821V440.08011a22.849039 22.849039 0 0 0-25.387821-25.387821h-110.013893a22.849039 22.849039 0 0 0-25.387821 25.387821v220.027785a84.626071 84.626071 0 0 1-84.626071 84.626071H321.57907a84.626071 84.626071 0 0 1-84.626071-84.626071V440.08011a22.849039 22.849039 0 0 0-25.387822-25.387821H101.551285a22.849039 22.849039 0 0 0-25.387821 25.387821z" p-id="1555"></path><path d="M1040.900673 1024h-930.886781A111.706414 111.706414 0 0 1 0 913.986108V440.08011a111.706414 111.706414 0 0 1 110.013892-110.013892h25.387822V110.038434A99.858764 99.858764 0 0 1 236.952999 0.024542h660.083353a111.706414 111.706414 0 0 1 110.013892 110.013892v220.027784h25.387822a111.706414 111.706414 0 0 1 110.013892 110.013892v465.443391a103.243807 103.243807 0 0 1-101.551285 118.476499zM101.551285 448.542718v465.44339h930.886781V448.542718h-110.013893v220.027784a111.706414 111.706414 0 0 1-110.013892 110.013892H321.57907a111.706414 111.706414 0 0 1-110.013893-110.013892V440.08011z m143.864321-118.4765a116.783978 116.783978 0 0 1 84.626071 110.013892v220.027785h490.831211V440.08011a116.783978 116.783978 0 0 1 84.626071-110.013892V110.038434H245.415606z" p-id="1556"></path></svg>