<?xml version="1.0" standalone="no"?><!DOCTYPE svg PUBLIC "-//W3C//DTD SVG 1.1//EN" "http://www.w3.org/Graphics/SVG/1.1/DTD/svg11.dtd"><svg t="1610443342597" class="icon" viewBox="0 0 1024 1024" version="1.1" xmlns="http://www.w3.org/2000/svg" p-id="1910" xmlns:xlink="http://www.w3.org/1999/xlink" width="200" height="200"><defs><style type="text/css"></style></defs><path d="M473.100401 560.510882c-153.473218 0-273.582693-120.109475-273.582693-273.582692s120.109475-273.582693 273.582693-273.582693 273.582693 120.109475 273.582692 273.582693-120.109475 273.582693-273.582692 273.582692z m0-80.072983c106.763978 0 193.509709-86.745732 193.509709-193.509709s-86.745732-193.509709-193.509709-193.50971-193.509709 86.745732-193.50971 193.50971c0 106.763978 86.745732 193.509709 193.50971 193.509709z" p-id="1911"></path><path d="M473.100401 567.183631c-153.473218 0-286.92819-126.782223-286.92819-286.92819 0-153.473218 126.782223-280.255441 286.92819-280.255441 153.473218 0 286.92819 126.782223 286.92819 280.255441 0 160.145966-126.782223 286.92819-286.92819 286.92819z m0-540.492637c-146.800469 0-266.909944 120.109475-266.909944 260.237196 0 146.800469 120.109475 266.909944 266.909944 266.909944s260.237195-120.109475 260.237195-266.909944c6.672749-146.800469-113.436726-260.237195-260.237195-260.237196z m13.345497 467.092402h-6.672749c-113.436726 0-206.855207-93.41848-206.855206-206.855206 0-113.436726 93.41848-206.855207 206.855206-206.855207s206.855207 93.41848 206.855207 206.855207c-6.672749 106.763978-93.41848 200.182458-200.182458 206.855206z m-13.345497-393.692167c-100.091229 0-186.836961 80.072983-186.836961 186.836961 0 46.70924 20.018246 93.41848 53.381989 133.454972 33.363743 33.363743 80.072983 53.381989 126.782223 53.381989h6.672749c100.091229 0 186.836961-80.072983 186.836961-186.836961 0-100.091229-80.072983-186.836961-186.836961-186.836961z" p-id="1912"></path><path d="M800.065082 680.620357c13.345497 13.345497 13.345497 40.036492-6.672748 53.381989-13.345497 13.345497-40.036492 13.345497-53.381989-6.672749-126.782223-146.800469-346.982927-166.818715-493.783397-40.036491-80.072983 66.727486-120.109475 166.818715-120.109474 266.909944 0 20.018246-20.018246 40.036492-40.036492 40.036491s-40.036492-20.018246-40.036491-40.036491c0-240.21895 193.509709-427.05591 427.05591-427.055911 126.782223 0 246.891698 53.381989 326.964681 153.473218z" p-id="1913"></path><path d="M86.080982 1007.585038c-13.345497 0-26.690994-6.672749-33.363743-13.345497-6.672749-6.672749-13.345497-20.018246-13.345497-33.363743 0-240.21895 200.182458-440.401408 440.401407-440.401407 126.782223 0 246.891698 53.381989 333.63743 153.473217v6.672749c20.018246 20.018246 13.345497 53.381989-6.672748 66.727486-20.018246 20.018246-53.381989 13.345497-66.727486-6.672749-60.054737-66.727486-140.127721-113.436726-233.546201-120.109474-93.41848-6.672749-180.164212 20.018246-246.891698 80.072983-73.400235 66.727486-120.109475 160.145966-120.109475 260.237195 0 13.345497-6.672749 26.690994-13.345497 33.363743-20.018246 6.672749-26.690994 13.345497-40.036492 13.345497z m387.019419-473.76515c-233.546201 0-420.383162 186.836961-420.383162 420.383162 0 6.672749 0 13.345497 6.672749 20.018245 6.672749 6.672749 13.345497 6.672749 20.018246 6.672749 6.672749 0 13.345497 0 20.018245-6.672749 6.672749-6.672749 6.672749-13.345497 6.672749-20.018245 0-106.763978 46.70924-206.855207 126.782223-273.582693 73.400235-60.054737 166.818715-93.41848 260.237196-86.745732 93.41848 6.672749 186.836961 53.381989 246.891698 126.782224 13.345497 13.345497 26.690994 13.345497 40.036491 0 13.345497-13.345497 13.345497-26.690994 6.672749-40.036492-73.400235-86.745732-186.836961-146.800469-313.619184-146.800469z" p-id="1914"></path><path d="M940.192803 794.057083h-200.182458c-20.018246 0-40.036492 20.018246-40.036492 40.036492s20.018246 40.036492 40.036492 40.036491h200.182458c20.018246 0 40.036492-20.018246 40.036491-40.036491s-20.018246-40.036492-40.036491-40.036492z m0 140.127721h-200.182458c-20.018246 0-40.036492 20.018246-40.036492 40.036491s20.018246 40.036492 40.036492 40.036492h200.182458c20.018246 0 40.036492-20.018246 40.036491-40.036492s-20.018246-40.036492-40.036491-40.036491z m-333.63743-140.127721h-60.054738c-20.018246 0-40.036492 20.018246-40.036491 40.036492s20.018246 40.036492 40.036491 40.036491h60.054738c20.018246 0 40.036492-20.018246 40.036491-40.036491s-13.345497-40.036492-40.036491-40.036492z m0 140.127721h-60.054738c-20.018246 0-40.036492 20.018246-40.036491 40.036491s20.018246 40.036492 40.036491 40.036492h60.054738c20.018246 0 40.036492-20.018246 40.036491-40.036492s-13.345497-40.036492-40.036491-40.036491z" p-id="1915"></path><path d="M940.192803 1020.930536h-200.182458c-26.690994 0-46.70924-20.018246-46.70924-46.709241 0-13.345497 6.672749-26.690994 13.345497-33.363743 6.672749-6.672749 20.018246-13.345497 33.363743-13.345497h200.182458c13.345497 0 26.690994 6.672749 33.363743 13.345497 6.672749 6.672749 13.345497 20.018246 13.345497 33.363743s-6.672749 26.690994-13.345497 33.363743-20.018246 13.345497-33.363743 13.345498z m-200.182458-73.400235c-6.672749 0-13.345497 0-20.018246 6.672749-6.672749 6.672749-6.672749 13.345497-6.672749 20.018245 0 13.345497 13.345497 26.690994 26.690995 26.690995h200.182458c6.672749 0 13.345497 0 20.018246-6.672749 6.672749-6.672749 6.672749-13.345497 6.672748-20.018246 0-6.672749 0-13.345497-6.672748-20.018245-6.672749-6.672749-13.345497-6.672749-20.018246-6.672749v-13.345497 13.345497h-200.182458z m-133.454972 73.400235h-60.054738c-26.690994 0-46.70924-20.018246-46.70924-46.709241 0-26.690994 20.018246-46.70924 46.70924-46.70924h60.054738c26.690994 0 46.70924 20.018246 46.70924 46.70924 6.672749 26.690994-13.345497 46.70924-46.70924 46.709241z m-60.054738-73.400235c-13.345497 0-26.690994 13.345497-26.690994 26.690994s13.345497 26.690994 26.690994 26.690995h60.054738c13.345497 0 26.690994-13.345497 26.690994-26.690995s-13.345497-26.690994-26.690994-26.690994h-60.054738z m393.692168-66.727486h-200.182458c-26.690994 0-46.70924-20.018246-46.70924-46.70924 0-13.345497 6.672749-26.690994 13.345497-33.363743 6.672749-6.672749 20.018246-13.345497 33.363743-13.345497h200.182458c13.345497 0 26.690994 6.672749 33.363743 13.345497 6.672749 6.672749 13.345497 20.018246 13.345497 33.363743 0 26.690994-20.018246 46.70924-46.70924 46.70924z m-200.182458-73.400235c-6.672749 0-13.345497 0-20.018246 6.672749-6.672749 6.672749-6.672749 13.345497-6.672749 20.018246 0 13.345497 13.345497 26.690994 26.690995 26.690994h200.182458c13.345497 0 26.690994-13.345497 26.690994-26.690994 0-6.672749 0-13.345497-6.672748-20.018246-6.672749-6.672749-13.345497-6.672749-20.018246-6.672749h-200.182458z m-133.454972 73.400235h-60.054738c-26.690994 0-46.70924-20.018246-46.70924-46.70924 0-13.345497 6.672749-26.690994 13.345497-33.363743 6.672749-6.672749 20.018246-13.345497 33.363743-13.345497h60.054738c26.690994 0 46.70924 20.018246 46.70924 46.70924 6.672749 26.690994-13.345497 46.70924-46.70924 46.70924z m-60.054738-73.400235c-6.672749 0-13.345497 0-20.018245 6.672749-6.672749 6.672749-6.672749 13.345497-6.672749 20.018246 0 13.345497 13.345497 26.690994 26.690994 26.690994h60.054738c13.345497 0 26.690994-13.345497 26.690994-26.690994s-13.345497-26.690994-26.690994-26.690995h-60.054738z" p-id="1916"></path></svg>