<?xml version="1.0" standalone="no"?><!DOCTYPE svg PUBLIC "-//W3C//DTD SVG 1.1//EN" "http://www.w3.org/Graphics/SVG/1.1/DTD/svg11.dtd"><svg t="1606444957828" class="icon" viewBox="0 0 1024 1024" version="1.1" xmlns="http://www.w3.org/2000/svg" p-id="20944" xmlns:xlink="http://www.w3.org/1999/xlink" width="200" height="200"><defs><style type="text/css"></style></defs><path d="M967.682667 510.437747a459.226315 459.226315 0 1 0-459.226315 459.226315 459.150108 459.150108 0 0 0 459.226315-459.226315z m0 0" fill="#FD9F13" p-id="20945"></path><path d="M512.038104 1024a511.961896 511.961896 0 1 1 511.961896-511.961896 512.647764 512.647764 0 0 1-511.961896 511.961896z m0-913.956389a401.994493 401.994493 0 1 0 401.994493 401.994493 402.37553 402.37553 0 0 0-401.994493-401.994493z m0 0" fill="#FCEA10" p-id="20946"></path><path d="M455.720771 794.15822V600.362581L278.004912 279.833891h147.690109l94.649699 207.43678 94.268661-207.43678h148.757014L583.901764 600.362581v193.795639z" fill="#FFFFFF" p-id="20947"></path></svg>