<?xml version="1.0" standalone="no"?><!DOCTYPE svg PUBLIC "-//W3C//DTD SVG 1.1//EN" "http://www.w3.org/Graphics/SVG/1.1/DTD/svg11.dtd"><svg t="1610443369665" class="icon" viewBox="0 0 1024 1024" version="1.1" xmlns="http://www.w3.org/2000/svg" p-id="2174" xmlns:xlink="http://www.w3.org/1999/xlink" width="200" height="200"><defs><style type="text/css"></style></defs><path d="M509.462289 1010.255034l-144.322148-82.469799-130.577181 75.597315h-13.744966c-13.744966 0-34.362416 0-48.107383-6.872483-27.489933-13.744966-54.979866-34.362416-68.724832-68.724832-6.872483-13.744966-6.872483-34.362416-6.872483-48.107383V137.449664c0-13.744966 0-34.362416 6.872483-48.107382 6.872483-13.744966 13.744966-27.489933 27.489933-41.234899 13.744966-13.744966 27.489933-20.61745 41.234899-27.489933 13.744966-6.872483 34.362416-6.872483 48.107383-6.872484h577.28859c13.744966 0 34.362416 0 48.107383 6.872484 13.744966 6.872483 27.489933 13.744966 41.234899 27.489933 13.744966 13.744966 20.61745 27.489933 27.489933 41.234899 6.872483 13.744966 6.872483 34.362416 6.872483 48.107382v742.228188c0 13.744966 0 34.362416-6.872483 48.107383-13.744966 27.489933-34.362416 54.979866-68.724832 68.724832-13.744966 6.872483-34.362416 6.872483-48.107383 6.872483h-13.744966l-130.577181-75.597315-144.322148 82.469799z m144.322148-178.684564l151.194631 89.342282h6.872483c6.872483 0 6.872483-6.872483 13.744966-6.872484 6.872483-6.872483 6.872483-6.872483 6.872484-13.744966V137.449664v-13.744966c0-6.872483-6.872483-6.872483-6.872484-13.744966-6.872483-6.872483-6.872483-6.872483-13.744966-6.872484H207.073027c-6.872483 0-6.872483 6.872483-13.744966 6.872484-6.872483 6.872483-6.872483 6.872483-6.872483 13.744966v769.718121c0 6.872483 6.872483 6.872483 6.872483 13.744966 6.872483 6.872483 6.872483 6.872483 13.744966 6.872483h6.872484l151.19463-89.342281 144.322148 82.469798 144.322148-75.597315z" p-id="2175"></path><path d="M509.462289 1024l-144.322148-82.469799-130.577181 75.597316h-13.744966c-20.61745 0-34.362416-6.872483-54.979866-13.744967-34.362416-13.744966-61.852349-41.234899-68.724832-68.724832-6.872483-13.744966-13.744966-34.362416-13.744967-54.979866V137.449664c0-20.61745 6.872483-34.362416 13.744967-54.979865 6.872483-13.744966 13.744966-27.489933 27.489933-41.2349 13.744966-13.744966 27.489933-20.61745 41.234899-27.489933 13.744966-6.872483 34.362416-13.744966 54.979866-13.744966h577.28859c20.61745 0 34.362416 6.872483 54.979866 13.744966 13.744966 6.872483 27.489933 13.744966 41.2349 27.489933 13.744966 13.744966 20.61745 27.489933 27.489932 41.2349 6.872483 13.744966 13.744966 34.362416 13.744967 54.979865v742.228188c0 20.61745-6.872483 34.362416-13.744967 54.979866-13.744966 34.362416-41.234899 61.852349-68.724832 68.724832-13.744966 6.872483-34.362416 13.744966-54.979866 13.744967h-13.744966l-130.577181-75.597316-144.322148 82.469799z m-144.322148-109.959732l144.322148 82.469799 144.322148-82.469799 137.449664 75.597316h6.872483c13.744966 0 27.489933 0 41.2349-6.872483 27.489933-13.744966 48.107383-34.362416 61.852349-61.852349 6.872483-13.744966 6.872483-27.489933 6.872483-41.2349V137.449664c0-13.744966 0-27.489933-6.872483-41.234899-6.872483-13.744966-13.744966-27.489933-27.489933-34.362416-13.744966-6.872483-20.61745-20.61745-34.362416-27.489933-13.744966-6.872483-27.489933-6.872483-41.2349-6.872483h-577.28859c-13.744966 0-27.489933 0-41.234899 6.872483-13.744966 6.872483-27.489933 13.744966-34.362417 27.489933-6.872483 13.744966-20.61745 20.61745-27.489932 34.362416-6.872483 13.744966-6.872483 27.489933-6.872484 41.234899v742.228188c0 13.744966 0 27.489933 6.872484 41.2349 13.744966 27.489933 34.362416 48.107383 61.852349 61.852349 13.744966 6.872483 27.489933 6.872483 41.234899 6.872483h6.872483l137.449664-75.597316z m-158.067114 20.61745h-13.744966c-6.872483 0-6.872483-6.872483-13.744966-13.744966s-13.744966-6.872483-13.744967-20.61745c0-6.872483-6.872483-13.744966-6.872483-20.61745V137.449664c0-6.872483 0-13.744966 6.872483-20.617449 6.872483-6.872483 6.872483-13.744966 13.744967-13.744967 6.872483-6.872483 6.872483-13.744966 20.617449-13.744966 6.872483 0 13.744966-6.872483 20.61745-6.872483h577.28859c6.872483 0 13.744966 0 20.61745 6.872483 6.872483 6.872483 13.744966 6.872483 13.744967 13.744966 6.872483 6.872483 13.744966 6.872483 13.744966 20.61745 0 6.872483 6.872483 13.744966 6.872483 20.61745v742.228188c0 6.872483 0 13.744966-6.872483 20.617449-6.872483 6.872483-6.872483 13.744966-13.744966 13.744967-6.872483 6.872483-6.872483 6.872483-20.61745 13.744966h-6.872483l-151.194631-82.469799-144.322148 82.469799-144.322148-82.469799-158.067114 82.469799c6.872483 0 0 0 0 0z m591.033557-831.57047h-591.033557c-6.872483 0-6.872483 0-6.872483 6.872484-6.872483 6.872483-6.872483 6.872483-6.872483 13.744966v769.718121s0 6.872483 6.872483 6.872483c6.872483 6.872483 6.872483 6.872483 13.744967 6.872483l158.067114-89.342282 144.322147 82.469799 123.704698-68.724832-20.617449-13.744967h75.597315l-20.61745 13.744967 137.449665 75.597315s6.872483 0 6.872483-6.872483c6.872483-6.872483 6.872483-6.872483 6.872483-13.744966v-755.973155-13.744966s0-6.872483-6.872483-6.872483c-6.872483-6.872483-6.872483-6.872483-13.744966-6.872484 0 6.872483-6.872483 0-6.872484 0z" p-id="2176"></path><path d="M468.22739 316.134228h-158.067114c-20.61745 0-41.234899-20.61745-41.2349-48.107382 0-20.61745 20.61745-41.234899 41.2349-41.2349h158.067114c20.61745 0 41.234899 20.61745 41.234899 48.107383-6.872483 20.61745-20.61745 41.234899-41.234899 41.234899z m199.302013 178.684564h-364.241611c-20.61745 0-41.234899-20.61745-41.234899-48.107383 0-20.61745 20.61745-41.234899 41.234899-41.234899h364.241611c20.61745 0 41.234899 20.61745 41.2349 41.234899 0 27.489933-20.61745 48.107383-41.2349 48.107383z" p-id="2177"></path></svg>