<?xml version="1.0" standalone="no"?><!DOCTYPE svg PUBLIC "-//W3C//DTD SVG 1.1//EN" "http://www.w3.org/Graphics/SVG/1.1/DTD/svg11.dtd"><svg t="1606394747803" class="icon" viewBox="0 0 1024 1024" version="1.1" xmlns="http://www.w3.org/2000/svg" p-id="4667" xmlns:xlink="http://www.w3.org/1999/xlink" width="200" height="200"><defs><style type="text/css"></style></defs><path d="M512 512m-512 0a512 512 0 1 0 1024 0 512 512 0 1 0-1024 0Z" fill="#FFBE11" p-id="4668"></path><path d="M601.12896 245.76c44.31872 0 88.4736 0 88.30976 44.60544v88.2688s-62.0544 46.94016-61.44 86.016c0.2048 14.45888-0.49152 90.39872-0.49152 90.39872h-231.424s0.8192-44.15488-0.53248-90.112-59.02336-86.34368-59.02336-86.34368v-88.35072c0-44.4416 43.78624-44.48256 89.12896-44.2368 43.90912 0.24576 169.65632 0 175.59552 0z m-354.01728 441.46688c0 44.15488 61.44 44.40064 61.44 44.40064l0.8192 70.90176h70.61504v-71.55712l265.54368-1.10592v71.22944h68.52608v-69.632s63.61088-0.98304 63.73376-44.15488v-122.0608a70.20544 70.20544 0 0 0 17.8176-115.3024 80.93696 80.93696 0 0 0-132.096 50.05312c0 19.456 0.24576 98.304 0.24576 98.304l-302.24384 0.32768v-93.22496c0-81.92-109.07648-96.91136-145.94048-35.88096-35.59424 58.90048 32.3584 85.07392 32.31744 93.71648s-0.53248 60.6208-0.69632 123.94496z m494.91968-265.78944a77.16864 77.16864 0 1 0 77.16864 77.16864 77.16864 77.16864 0 0 0-77.16864-77.16864z m-460.06272 0a77.16864 77.16864 0 1 0 77.16864 77.16864 77.16864 77.16864 0 0 0-77.16864-77.16864z" fill="#FFFFFF" p-id="4669"></path></svg>